<svg width="24" height="18" viewBox="0 0 24 18" fill="none" xmlns="http://www.w3.org/2000/svg">
<path d="M20.8184 17.9286C20.3682 17.9378 19.926 17.809 19.5512 17.5595C19.2723 17.3772 18.9462 17.2802 18.613 17.2802C18.2797 17.2802 17.9537 17.3772 17.6747 17.5595C17.2961 17.8006 16.8566 17.9286 16.4077 17.9286C15.9589 17.9286 15.5194 17.8006 15.1408 17.5595C14.8618 17.377 14.5357 17.2799 14.2023 17.2799C13.869 17.2799 13.5429 17.377 13.2639 17.5595C12.8853 17.8006 12.4458 17.9286 11.9969 17.9286C11.5481 17.9286 11.1086 17.8006 10.7299 17.5595C10.4512 17.3772 10.1253 17.28 9.79216 17.28C9.45904 17.28 9.13315 17.3772 8.85438 17.5595C8.5111 17.7876 8.1105 17.9144 7.69848 17.9253L7.67578 17.2767C7.98012 17.2695 8.27566 17.1732 8.52584 16.9997C8.90435 16.7587 9.34376 16.6307 9.79248 16.6307C10.2412 16.6307 10.6806 16.7587 11.0591 16.9997C11.3381 17.1821 11.6641 17.2792 11.9974 17.2792C12.3307 17.2792 12.6567 17.1821 12.9357 16.9997C13.3143 16.7585 13.754 16.6304 14.203 16.6304C14.6519 16.6304 15.0916 16.7585 15.4703 16.9997C15.7492 17.1821 16.0753 17.2792 16.4085 17.2792C16.7418 17.2792 17.0679 17.1821 17.3468 16.9997C17.7255 16.7588 18.165 16.6308 18.6138 16.6308C19.0626 16.6308 19.5021 16.7588 19.8808 16.9997C20.1604 17.1825 20.4872 17.2799 20.8213 17.2799C21.1554 17.2799 21.4822 17.1825 21.7618 16.9997C22.1362 16.751 22.5776 16.6224 23.027 16.6313V17.2799C22.6924 17.2708 22.3636 17.3686 22.0884 17.5592C21.7127 17.809 21.2695 17.9379 20.8184 17.9286Z" fill="white"/>
<path d="M3.17837 17.9285C2.7283 17.9378 2.28619 17.809 1.91156 17.5594C1.63643 17.3686 1.30761 17.2707 0.972961 17.2798V16.6312C1.42313 16.6218 1.86536 16.7506 2.2401 17.0002C2.51507 17.191 2.84381 17.289 3.17837 17.2798C3.51307 17.289 3.84195 17.1909 4.11696 16.9999C4.4909 16.7504 4.9324 16.6217 5.38182 16.6312C5.82036 16.6213 6.25164 16.7442 6.61912 16.9837L6.29188 17.5435C6.02345 17.3628 5.70525 17.2706 5.38182 17.2798C5.0485 17.2708 4.72102 17.3685 4.44712 17.5587C4.07206 17.809 3.62917 17.9381 3.17837 17.9285Z" fill="white"/>
<path d="M20.8193 15.6579C20.3689 15.6671 19.9264 15.5383 19.5512 15.2888C19.272 15.1064 18.9457 15.0092 18.6122 15.0092C18.2786 15.0092 17.9523 15.1064 17.6731 15.2888C17.2945 15.5298 16.855 15.6578 16.4063 15.6578C15.9575 15.6578 15.518 15.5298 15.1395 15.2888C14.8606 15.1065 14.5347 15.0094 14.2015 15.0094C13.8683 15.0094 13.5424 15.1065 13.2636 15.2888C12.885 15.5299 12.4455 15.6579 11.9967 15.6579C11.548 15.6579 11.1085 15.5299 10.7299 15.2888C10.4511 15.1065 10.1252 15.0094 9.79199 15.0094C9.45882 15.0094 9.13288 15.1065 8.85404 15.2888C8.47942 15.5384 8.0373 15.6672 7.58723 15.6579C7.13716 15.6672 6.69504 15.5384 6.32042 15.2888C6.04555 15.0981 5.71693 15.0001 5.38248 15.0093C5.04813 15.0002 4.71963 15.0981 4.44485 15.2888C4.07083 15.5381 3.62941 15.6669 3.17999 15.6579C2.72982 15.6672 2.28759 15.5384 1.91285 15.2888C1.63743 15.0977 1.30807 14.9997 0.972961 15.0093V14.3606C1.42302 14.3513 1.86513 14.4801 2.23977 14.7297C2.5149 14.9204 2.84372 15.0184 3.17837 15.0093C3.51271 15.0183 3.84121 14.9204 4.11599 14.7297C4.49002 14.4804 4.93143 14.3516 5.38085 14.3606C5.83125 14.351 6.27375 14.4799 6.64864 14.7297C6.92361 14.9205 7.25235 15.0184 7.58691 15.0093C7.92147 15.0184 8.2502 14.9205 8.52518 14.7297C8.90372 14.4886 9.34319 14.3605 9.79199 14.3605C10.2408 14.3605 10.6803 14.4886 11.0588 14.7297C11.3377 14.9121 11.6637 15.0092 11.9969 15.0092C12.3301 15.0092 12.6561 14.9121 12.935 14.7297C13.3136 14.4886 13.753 14.3605 14.2018 14.3605C14.6506 14.3605 15.0901 14.4886 15.4686 14.7297C15.7475 14.9121 16.0735 15.0092 16.4067 15.0092C16.74 15.0092 17.066 14.9121 17.3449 14.7297C17.7238 14.4887 18.1636 14.3607 18.6126 14.3607C19.0617 14.3607 19.5015 14.4887 19.8804 14.7297C20.1598 14.912 20.4862 15.0091 20.8198 15.0091C21.1534 15.0091 21.4798 14.912 21.7592 14.7297C22.1343 14.4803 22.5767 14.3515 23.027 14.3606V15.0093C22.6917 14.9998 22.3622 15.0977 22.0865 15.2888C21.7116 15.5381 21.2695 15.6669 20.8193 15.6579Z" fill="white"/>
<path d="M20.8184 13.388C20.3682 13.3972 19.926 13.2684 19.5512 13.0189C19.2761 12.8282 18.9473 12.7303 18.6126 12.7394C18.367 12.7309 18.1232 12.7833 17.9027 12.8918L17.6166 12.308C17.9263 12.1563 18.2679 12.0814 18.6126 12.0897C19.0633 12.0806 19.506 12.2097 19.8811 12.4598C20.1607 12.6426 20.4875 12.7399 20.8216 12.7399C21.1557 12.7399 21.4825 12.6426 21.7622 12.4598C22.1364 12.2109 22.5777 12.0821 23.027 12.0907V12.7394C22.6924 12.7302 22.3636 12.828 22.0884 13.0186C21.7127 13.2685 21.2695 13.3974 20.8184 13.388Z" fill="white"/>
<path d="M16.4043 13.3879C15.9549 13.3973 15.5134 13.2686 15.1394 13.0191C14.8605 12.8366 14.5344 12.7395 14.201 12.7395C13.8677 12.7395 13.5416 12.8366 13.2626 13.0191C12.884 13.2602 12.4444 13.3882 11.9956 13.3882C11.5468 13.3882 11.1073 13.2602 10.7286 13.0191C10.4497 12.8367 10.1236 12.7396 9.79037 12.7396C9.4571 12.7396 9.13105 12.8367 8.8521 13.0191C8.47753 13.2683 8.03572 13.397 7.58593 13.3879C7.13587 13.3972 6.69376 13.2684 6.31912 13.0188C6.044 12.8281 5.71518 12.7301 5.38053 12.7392C5.0472 12.7302 4.71972 12.828 4.44583 13.0181C4.07112 13.2682 3.62873 13.3972 3.17837 13.3879C2.7283 13.3972 2.28619 13.2684 1.91156 13.0188C1.63643 12.8281 1.30761 12.7301 0.972961 12.7392V12.0906C1.42313 12.0812 1.86536 12.21 2.2401 12.4597C2.51507 12.6504 2.84381 12.7484 3.17837 12.7392C3.51308 12.7484 3.84196 12.6503 4.11696 12.4593C4.4909 12.2098 4.9324 12.0811 5.38183 12.0906C5.83189 12.0813 6.27399 12.2101 6.64864 12.4597C6.92361 12.6504 7.25235 12.7484 7.58691 12.7392C7.92156 12.7483 8.25038 12.6504 8.5255 12.4597C8.90412 12.2186 9.34364 12.0906 9.79248 12.0906C10.2413 12.0906 10.6808 12.2186 11.0594 12.4597C11.3384 12.642 11.6644 12.7391 11.9977 12.7391C12.331 12.7391 12.657 12.642 12.936 12.4597C13.3147 12.2184 13.7543 12.0903 14.2033 12.0903C14.6523 12.0903 15.0919 12.2184 15.4706 12.4597C15.7563 12.6518 16.0952 12.7495 16.4393 12.7389C16.4644 12.7392 16.4894 12.7379 16.5143 12.735L16.6005 13.3778C16.5354 13.3854 16.4699 13.3888 16.4043 13.3879Z" fill="white"/>
<path d="M20.8193 11.1174C20.3689 11.1266 19.9264 10.9978 19.5512 10.7483C19.272 10.5658 18.9457 10.4687 18.6122 10.4687C18.2786 10.4687 17.9523 10.5658 17.6731 10.7483C17.2945 10.9893 16.855 11.1173 16.4063 11.1173C15.9575 11.1173 15.518 10.9893 15.1395 10.7483C14.8606 10.5659 14.5347 10.4688 14.2015 10.4688C13.8683 10.4688 13.5424 10.5659 13.2636 10.7483C12.885 10.9893 12.4455 11.1174 11.9967 11.1174C11.548 11.1174 11.1085 10.9893 10.7299 10.7483C10.4511 10.5659 10.1252 10.4688 9.79199 10.4688C9.45882 10.4688 9.13288 10.5659 8.85404 10.7483C8.47942 10.9979 8.0373 11.1267 7.58723 11.1174C7.13716 11.1267 6.69504 10.9979 6.32042 10.7483C6.04555 10.5575 5.71693 10.4596 5.38248 10.4687C5.04813 10.4596 4.71963 10.5576 4.44485 10.7483C4.07083 10.9976 3.62941 11.1264 3.17999 11.1174C2.72982 11.1267 2.28759 10.9979 1.91285 10.7483C1.63743 10.5572 1.30807 10.4592 0.972961 10.4687V9.82008C1.42302 9.81077 1.86513 9.93958 2.23977 10.1892C2.5149 10.3799 2.84372 10.4778 3.17837 10.4687C3.51271 10.4778 3.84121 10.3799 4.11599 10.1892C4.49002 9.93983 4.93143 9.81103 5.38085 9.82008C5.83125 9.81051 6.27375 9.93933 6.64864 10.1892C6.92361 10.3799 7.25235 10.4779 7.58691 10.4687C7.92147 10.4779 8.2502 10.3799 8.52518 10.1892C8.90372 9.94806 9.34319 9.82 9.79199 9.82C10.2408 9.82 10.6803 9.94806 11.0588 10.1892C11.3377 10.3715 11.6637 10.4687 11.9969 10.4687C12.3301 10.4687 12.6561 10.3715 12.935 10.1892C13.3136 9.94806 13.753 9.82 14.2018 9.82C14.6506 9.82 15.0901 9.94806 15.4686 10.1892C15.7475 10.3715 16.0735 10.4687 16.4067 10.4687C16.74 10.4687 17.066 10.3715 17.3449 10.1892C17.7238 9.94816 18.1636 9.82016 18.6126 9.82016C19.0617 9.82016 19.5015 9.94816 19.8804 10.1892C20.1598 10.3715 20.4862 10.4686 20.8198 10.4686C21.1534 10.4686 21.4798 10.3715 21.7592 10.1892C22.1343 9.93973 22.5767 9.81095 23.027 9.82008V10.4687C22.6917 10.4592 22.3622 10.5572 22.0865 10.7483C21.7116 10.9976 21.2695 11.1264 20.8193 11.1174Z" fill="white"/>
<path d="M16.1977 10.8423L15.5857 10.6276C15.7433 10.1748 15.8077 9.69472 15.775 9.21634C15.7423 8.73795 15.6131 8.27113 15.3953 7.84396L13.1675 3.48147C13.1455 3.43839 13.1335 3.39094 13.1322 3.34258C13.1309 3.29423 13.1404 3.2462 13.1601 3.20201C13.1798 3.15783 13.2091 3.1186 13.2459 3.08721C13.2827 3.05583 13.3261 3.03307 13.3728 3.02061L17.8125 1.83682C17.9572 1.79899 18.0811 1.70555 18.1572 1.57684C18.2333 1.44813 18.2556 1.29456 18.2191 1.14954C18.1826 1.00453 18.0903 0.879793 17.9622 0.802481C17.8342 0.725169 17.6809 0.701533 17.5355 0.736716L12.1621 2.02104C12.0473 2.04818 11.9402 2.10141 11.8492 2.17659C11.7582 2.25177 11.6857 2.34688 11.6374 2.45457C11.5891 2.56226 11.5662 2.67963 11.5705 2.79758C11.5748 2.91553 11.6063 3.03091 11.6623 3.13477L13.258 6.09909C13.2985 6.17443 13.3076 6.26271 13.2833 6.34471C13.259 6.42671 13.2033 6.4958 13.1283 6.53693L11.0688 7.67206L10.7559 7.10385L12.5338 6.12374L11.0919 3.44223C10.9887 3.2508 10.931 3.03822 10.9231 2.82091C10.9152 2.6036 10.9574 2.38739 11.0465 2.18901C11.1355 1.99062 11.269 1.81537 11.4366 1.67681C11.6041 1.53824 11.8014 1.44008 12.0129 1.3899L17.3838 0.105905C17.6964 0.0268991 18.0277 0.0753364 18.3046 0.240561C18.5816 0.405786 18.7816 0.674263 18.8606 0.986932C18.9396 1.2996 18.8911 1.63085 18.7259 1.9078C18.5607 2.18476 18.2922 2.38474 17.9795 2.46374L13.9274 3.54374L15.9733 7.5485C16.2309 8.05401 16.3836 8.60642 16.4221 9.17248C16.4607 9.73854 16.3844 10.3065 16.1977 10.8423Z" fill="white"/>
<path d="M9.62229 7.73377L5.68103 9.90552L5.99392 10.4733L9.93518 8.3016L9.62229 7.73377Z" fill="white"/>
<path d="M19.1351 8.68493C18.654 8.68493 18.1838 8.54227 17.7837 8.27499C17.3837 8.00771 17.072 7.62782 16.8879 7.18335C16.7038 6.73888 16.6556 6.2498 16.7494 5.77796C16.8433 5.30611 17.075 4.87269 17.4151 4.53251C17.7553 4.19233 18.1887 3.96066 18.6606 3.86681C19.1324 3.77295 19.6215 3.82112 20.066 4.00523C20.5104 4.18933 20.8903 4.5011 21.1576 4.90111C21.4249 5.30112 21.5676 5.77141 21.5676 6.2525C21.5669 6.89741 21.3104 7.51571 20.8544 7.97173C20.3983 8.42775 19.78 8.68424 19.1351 8.68493ZM19.1351 4.46872C18.7823 4.46872 18.4375 4.57333 18.1441 4.76934C17.8508 4.96534 17.6221 5.24393 17.4871 5.56988C17.3521 5.89582 17.3168 6.25448 17.3856 6.6005C17.4544 6.94652 17.6243 7.26436 17.8738 7.51382C18.1233 7.76329 18.4411 7.93318 18.7871 8.00201C19.1331 8.07084 19.4918 8.03551 19.8178 7.9005C20.1437 7.76549 20.4223 7.53686 20.6183 7.24352C20.8143 6.95018 20.9189 6.6053 20.9189 6.2525C20.9183 5.7796 20.7302 5.32623 20.3958 4.99184C20.0614 4.65744 19.608 4.46932 19.1351 4.46872Z" fill="white"/>
</svg>
