<svg width="55" height="18" viewBox="0 0 55 18" fill="none" xmlns="http://www.w3.org/2000/svg">
<path d="M3.03 5.00012H4.08L2.652 0.800117H1.428L0 5.00012H1.05L1.26 4.34012H2.82L3.03 5.00012ZM1.548 3.44012L2.04 1.89812L2.532 3.44012H1.548Z" fill="white"/>
<path d="M6.20494 2.00012L5.58094 3.90212L4.95694 2.00012H3.96094L5.07094 5.00012H6.09094L7.20094 2.00012H6.20494Z" fill="white"/>
<path d="M9.59198 2.00012V2.28212C9.39398 2.05412 9.09999 1.91612 8.69798 1.91612C7.91198 1.91612 7.26398 2.60612 7.26398 3.50012C7.26398 4.39412 7.91198 5.08412 8.69798 5.08412C9.09999 5.08412 9.39398 4.94612 9.59198 4.71812V5.00012H10.492V2.00012H9.59198ZM8.87799 4.23212C8.46398 4.23212 8.16398 3.95012 8.16398 3.50012C8.16398 3.05012 8.46398 2.76812 8.87799 2.76812C9.29198 2.76812 9.59198 3.05012 9.59198 3.50012C9.59198 3.95012 9.29198 4.23212 8.87799 4.23212Z" fill="white"/>
<path d="M11.1523 5.00012H12.0523V0.620117H11.1523V5.00012Z" fill="white"/>
<path d="M13.1609 1.73612C13.4549 1.73612 13.7009 1.49012 13.7009 1.19612C13.7009 0.902117 13.4549 0.656117 13.1609 0.656117C12.8669 0.656117 12.6209 0.902117 12.6209 1.19612C12.6209 1.49012 12.8669 1.73612 13.1609 1.73612ZM12.7109 5.00012H13.6109V2.00012H12.7109V5.00012Z" fill="white"/>
<path d="M16.0635 1.91612C15.6615 1.91612 15.3675 2.05412 15.1695 2.28212V0.800117H14.2695V5.00012H15.1695V4.71812C15.3675 4.94612 15.6615 5.08412 16.0635 5.08412C16.8495 5.08412 17.4975 4.39412 17.4975 3.50012C17.4975 2.60612 16.8495 1.91612 16.0635 1.91612ZM15.8835 4.23212C15.4695 4.23212 15.1695 3.95012 15.1695 3.50012C15.1695 3.05012 15.4695 2.76812 15.8835 2.76812C16.2975 2.76812 16.5975 3.05012 16.5975 3.50012C16.5975 3.95012 16.2975 4.23212 15.8835 4.23212Z" fill="white"/>
<path d="M18.0077 5.00012H18.9077V0.620117H18.0077V5.00012Z" fill="white"/>
<path d="M20.3703 3.86012H22.5003C22.5243 3.74612 22.5363 3.62612 22.5363 3.50012C22.5363 2.59412 21.8883 1.91612 21.0123 1.91612C20.0643 1.91612 19.4163 2.60612 19.4163 3.50012C19.4163 4.39412 20.0523 5.08412 21.0783 5.08412C21.6483 5.08412 22.0923 4.87412 22.3863 4.46612L21.6663 4.05212C21.5463 4.18412 21.3363 4.28012 21.0903 4.28012C20.7603 4.28012 20.4843 4.17212 20.3703 3.86012ZM20.3523 3.18812C20.4363 2.88212 20.6643 2.71412 21.0063 2.71412C21.2763 2.71412 21.5463 2.84012 21.6423 3.18812H20.3523Z" fill="white"/>
<path d="M25.9868 5.08412C26.8688 5.08412 27.5768 4.39412 27.5768 3.50012C27.5768 2.60612 26.8688 1.91612 25.9868 1.91612C25.1048 1.91612 24.3968 2.60612 24.3968 3.50012C24.3968 4.39412 25.1048 5.08412 25.9868 5.08412ZM25.9868 4.20812C25.5968 4.20812 25.2968 3.92612 25.2968 3.50012C25.2968 3.07412 25.5968 2.79212 25.9868 2.79212C26.3768 2.79212 26.6768 3.07412 26.6768 3.50012C26.6768 3.92612 26.3768 4.20812 25.9868 4.20812Z" fill="white"/>
<path d="M29.8439 1.91612C29.4479 1.91612 29.1479 2.06012 28.9859 2.28212V2.00012H28.0859V5.00012H28.9859V3.36212C28.9859 2.93612 29.2139 2.74412 29.5439 2.74412C29.8319 2.74412 30.0659 2.91812 30.0659 3.29012V5.00012H30.9659V3.15812C30.9659 2.34812 30.4499 1.91612 29.8439 1.91612Z" fill="white"/>
<path d="M34.8419 2.86412V2.00012H34.2239V1.16012L33.3239 1.43012V2.00012H32.8439V2.86412H33.3239V3.92612C33.3239 4.76612 33.6659 5.12012 34.8419 5.00012V4.18412C34.4459 4.20812 34.2239 4.18412 34.2239 3.92612V2.86412H34.8419Z" fill="white"/>
<path d="M37.1095 1.91612C36.7135 1.91612 36.4135 2.06012 36.2515 2.28212V0.800117H35.3515V5.00012H36.2515V3.36212C36.2515 2.93612 36.4795 2.74412 36.8095 2.74412C37.0975 2.74412 37.3315 2.91812 37.3315 3.29012V5.00012H38.2315V3.15812C38.2315 2.34812 37.7155 1.91612 37.1095 1.91612Z" fill="white"/>
<path d="M39.6535 3.86012H41.7835C41.8075 3.74612 41.8195 3.62612 41.8195 3.50012C41.8195 2.59412 41.1715 1.91612 40.2955 1.91612C39.3475 1.91612 38.6995 2.60612 38.6995 3.50012C38.6995 4.39412 39.3355 5.08412 40.3615 5.08412C40.9315 5.08412 41.3755 4.87412 41.6695 4.46612L40.9495 4.05212C40.8295 4.18412 40.6195 4.28012 40.3735 4.28012C40.0435 4.28012 39.7675 4.17212 39.6535 3.86012ZM39.6355 3.18812C39.7195 2.88212 39.9475 2.71412 40.2895 2.71412C40.5595 2.71412 40.8295 2.84012 40.9255 3.18812H39.6355Z" fill="white"/>
<path d="M5.05 16.0001H6.8L4.42 9.00012H2.38L0 16.0001H1.75L2.1 14.9001H4.7L5.05 16.0001ZM2.58 13.4001L3.4 10.8301L4.22 13.4001H2.58Z" fill="white"/>
<path d="M10.3369 10.8601C9.66687 10.8601 9.17688 11.0901 8.84688 11.4701V11.0001H7.34688V18.0001H8.84688V15.5301C9.17688 15.9101 9.66687 16.1401 10.3369 16.1401C11.6469 16.1401 12.7269 14.9901 12.7269 13.5001C12.7269 12.0101 11.6469 10.8601 10.3369 10.8601ZM10.0369 14.7201C9.34688 14.7201 8.84688 14.2501 8.84688 13.5001C8.84688 12.7501 9.34688 12.2801 10.0369 12.2801C10.7269 12.2801 11.2269 12.7501 11.2269 13.5001C11.2269 14.2501 10.7269 14.7201 10.0369 14.7201Z" fill="white"/>
<path d="M16.5673 10.8601C15.8973 10.8601 15.4073 11.0901 15.0773 11.4701V11.0001H13.5773V18.0001H15.0773V15.5301C15.4073 15.9101 15.8973 16.1401 16.5673 16.1401C17.8773 16.1401 18.9573 14.9901 18.9573 13.5001C18.9573 12.0101 17.8773 10.8601 16.5673 10.8601ZM16.2673 14.7201C15.5773 14.7201 15.0773 14.2501 15.0773 13.5001C15.0773 12.7501 15.5773 12.2801 16.2673 12.2801C16.9573 12.2801 17.4573 12.7501 17.4573 13.5001C17.4573 14.2501 16.9573 14.7201 16.2673 14.7201Z" fill="white"/>
<path d="M19.8078 16.0001H21.3078V8.70012H19.8078V16.0001Z" fill="white"/>
<path d="M23.7455 14.1001H27.2955C27.3355 13.9101 27.3555 13.7101 27.3555 13.5001C27.3555 11.9901 26.2755 10.8601 24.8155 10.8601C23.2355 10.8601 22.1555 12.0101 22.1555 13.5001C22.1555 14.9901 23.2155 16.1401 24.9255 16.1401C25.8755 16.1401 26.6155 15.7901 27.1055 15.1101L25.9055 14.4201C25.7055 14.6401 25.3555 14.8001 24.9455 14.8001C24.3955 14.8001 23.9355 14.6201 23.7455 14.1001ZM23.7155 12.9801C23.8555 12.4701 24.2355 12.1901 24.8055 12.1901C25.2555 12.1901 25.7055 12.4001 25.8655 12.9801H23.7155Z" fill="white"/>
<path d="M33.2062 16.1401C34.7262 16.1401 35.8063 15.3401 35.8063 13.9901C35.8063 12.5101 34.6163 12.1401 33.5563 11.8201C32.4663 11.4901 32.2962 11.2701 32.2962 10.9501C32.2962 10.6701 32.5462 10.4201 33.0462 10.4201C33.6862 10.4201 34.0162 10.7301 34.2562 11.2301L35.6063 10.4401C35.0963 9.41012 34.1963 8.86012 33.0462 8.86012C31.8363 8.86012 30.6963 9.64012 30.6963 10.9901C30.6963 12.3301 31.7162 12.8301 32.7562 13.1201C33.8062 13.4101 34.2062 13.5801 34.2062 14.0101C34.2062 14.2801 34.0162 14.5801 33.2562 14.5801C32.4662 14.5801 32.0363 14.1901 31.7862 13.6101L30.4062 14.4101C30.7962 15.4401 31.7362 16.1401 33.2062 16.1401Z" fill="white"/>
<path d="M39.3394 12.4401V11.0001H38.3094V9.60012L36.8094 10.0501V11.0001H36.0094V12.4401H36.8094V14.2101C36.8094 15.6101 37.3794 16.2001 39.3394 16.0001V14.6401C38.6794 14.6801 38.3094 14.6401 38.3094 14.2101V12.4401H39.3394Z" fill="white"/>
<path d="M42.491 16.1401C43.961 16.1401 45.141 14.9901 45.141 13.5001C45.141 12.0101 43.961 10.8601 42.491 10.8601C41.021 10.8601 39.841 12.0101 39.841 13.5001C39.841 14.9901 41.021 16.1401 42.491 16.1401ZM42.491 14.6801C41.841 14.6801 41.341 14.2101 41.341 13.5001C41.341 12.7901 41.841 12.3201 42.491 12.3201C43.141 12.3201 43.641 12.7901 43.641 13.5001C43.641 14.2101 43.141 14.6801 42.491 14.6801Z" fill="white"/>
<path d="M47.4895 11.8901V11.0001H45.9895V16.0001H47.4895V13.7401C47.4895 12.7501 48.3695 12.5001 48.9895 12.6001V10.9001C48.3595 10.9001 47.6895 11.2201 47.4895 11.8901Z" fill="white"/>
<path d="M50.8841 14.1001H54.4341C54.4741 13.9101 54.4941 13.7101 54.4941 13.5001C54.4941 11.9901 53.4141 10.8601 51.9541 10.8601C50.3741 10.8601 49.2941 12.0101 49.2941 13.5001C49.2941 14.9901 50.3541 16.1401 52.0641 16.1401C53.0141 16.1401 53.7541 15.7901 54.2441 15.1101L53.0441 14.4201C52.8441 14.6401 52.4941 14.8001 52.0841 14.8001C51.5341 14.8001 51.0741 14.6201 50.8841 14.1001ZM50.8541 12.9801C50.9941 12.4701 51.3741 12.1901 51.9441 12.1901C52.3941 12.1901 52.8441 12.4001 53.0041 12.9801H50.8541Z" fill="white"/>
</svg>
