<svg width="386" height="13" viewBox="0 0 386 13" fill="none" xmlns="http://www.w3.org/2000/svg">
<mask id="mask0_1_121" style="mask-type:alpha" maskUnits="userSpaceOnUse" x="0" y="0" width="386" height="13">
<rect x="0.293091" y="0.117889" width="385.139" height="11.9293" fill="#C4C4C4"/>
</mask>
<g mask="url(#mask0_1_121)">
<path d="M58.1423 -2.40513L59.0835 -2.56237L57.2518 -2.78781L58.1299 -2.95283C59.0104 -2.95132 60.1512 -2.70406 60.7719 -2.83544C60.8478 -2.96265 59.889 -3.00347 59.6444 -3.10483C59.4279 -3.20871 59.2512 -3.31191 59.1164 -3.41321C59.5959 -3.41212 60.1231 -3.38762 60.6666 -3.34115C61.3977 -3.26525 62.1148 -3.22835 62.7387 -3.23453C64.0147 -3.21404 65.2474 -3.23449 66.6346 -3.22998L66.173 -3.53613L67.9608 -3.46451C68.1503 -3.44118 68.3762 -3.47869 68.5624 -3.44984C70.1117 -3.20571 70.7674 -3.33874 71.5111 -3.44905C71.6637 -3.47759 71.8474 -3.4989 72.0574 -3.51242C74.1243 -3.45394 75.9881 -3.11175 77.8495 -2.93608C78.1999 -2.89123 78.5359 -2.83366 78.8338 -2.76745C79.4812 -2.63873 80.2014 -2.53364 80.9284 -2.46179C81.6554 -2.38994 82.366 -2.35363 82.9954 -2.35617C84.3871 -2.35901 85.9593 -2.27387 87.5601 -2.109C88.0361 -2.05469 88.5124 -2.01887 88.9587 -2.0038C89.405 -1.98874 89.8115 -1.99476 90.1521 -2.02151L91.2344 -1.84675C91.7035 -1.91766 92.2984 -1.95657 92.9829 -1.96111C93.6674 -1.96564 94.4272 -1.93572 95.2163 -1.87315C96.0572 -1.80527 96.9114 -1.75952 97.7839 -1.68775C99.5861 -1.55055 101.34 -1.46665 102.991 -1.43864C105.45 -1.35564 107.853 -1.29147 110.334 -1.18799C111.886 -1.13804 113.398 -1.11057 114.861 -1.10571C116.614 -1.08618 118.51 -0.991598 120.458 -0.826541V-0.826541C120.365 -0.671679 119.511 -0.71743 118.938 -0.722671C117.089 -0.74841 115.196 -0.815109 113.294 -0.865214C112.437 -0.884772 111.604 -0.89218 110.799 -0.887383C109.453 -0.893804 108.034 -0.935067 106.567 -1.01047C104.249 -1.09344 102.005 -1.13332 99.8579 -1.12971C99.6896 -1.12357 99.5354 -1.1127 99.3978 -1.09728C99.3691 -1.08392 99.3635 -1.06708 99.3814 -1.04836C99.3993 -1.02965 99.4402 -1.00968 99.5001 -0.990388C99.5601 -0.971095 99.637 -0.95312 99.7237 -0.938174C99.8104 -0.923228 99.9039 -0.911812 99.9952 -0.905029C100.848 -0.80008 101.764 -0.687361 102.568 -0.671503C102.599 -0.670319 102.632 -0.667613 102.665 -0.663579C102.698 -0.659546 102.729 -0.654286 102.757 -0.648182C104.557 -0.426623 106.038 -0.464116 107.44 -0.42807C109.768 -0.330646 112.012 -0.28514 114.139 -0.292238C114.46 -0.291755 114.807 -0.279091 115.167 -0.254702C117.394 -0.155839 119.477 -0.144782 121.317 -0.22203C122.075 -0.2416 122.779 -0.285534 123.593 -0.286269C124.094 -0.289294 124.531 -0.317329 124.876 -0.3687C125.221 -0.42007 125.468 -0.493713 125.602 -0.585199C125.945 -0.537033 126.294 -0.494106 126.644 -0.456933C126.853 -0.435678 127.054 -0.430032 127.205 -0.441155C127.356 -0.452277 127.447 -0.479336 127.46 -0.516859C127.522 -0.621943 127.045 -0.674716 126.631 -0.719716C126.881 -0.742253 127.162 -0.755511 127.469 -0.759171C129.193 -0.783183 131.043 -0.754842 132.978 -0.674773C134.48 -0.578932 135.679 -0.656941 137.26 -0.521785C137.449 -0.498463 137.605 -0.532694 137.779 -0.540913C138.234 -0.584195 138.801 -0.593923 139.43 -0.569247C140.059 -0.544571 140.732 -0.486235 141.39 -0.399299C142.21 -0.636812 143.98 -0.365474 145.288 -0.341088C145.69 -0.220301 145.228 -0.241536 145.209 -0.208351C145.189 -0.175167 145.209 -0.208358 145.051 -0.227793C143.745 -0.0567375 141.957 -0.0194382 139.936 -0.121138C139.562 -0.120716 139.206 -0.112923 138.871 -0.0978349C138.364 -0.0764794 137.792 -0.0786119 137.18 -0.104139C136.512 -0.122887 135.898 -0.113983 135.368 -0.0778567C135.063 -0.0784447 134.805 -0.0603474 134.618 -0.0252297C134.431 0.009888 134.321 0.0608879 134.299 0.123029C134.502 0.170934 134.728 0.214768 134.967 0.252791C136.215 0.402919 137.46 0.46506 138.457 0.426989C140.191 0.361394 142.254 0.425405 144.098 0.403012C145.345 0.39394 146.671 0.419781 148.052 0.480051C148.052 0.480051 148.016 0.540889 148.013 0.54642C148.176 0.572761 148.348 0.593895 148.518 0.608613C148.518 0.608613 148.518 0.608614 148.535 0.58096C148.459 0.554404 148.356 0.529421 148.239 0.508904L147.828 0.458371C148.107 0.445221 148.368 0.406068 148.659 0.42999C149.271 0.474433 149.857 0.493196 150.38 0.485163C150.904 0.47713 151.354 0.442463 151.703 0.383244C152.324 0.307347 153.095 0.272832 153.967 0.281928C154.636 0.273642 155.28 0.255833 155.898 0.228591C155.898 0.228591 155.937 0.162227 156.229 0.126954C155.953 0.0834491 155.664 0.0479242 155.377 0.0220094C154.127 -0.0427353 152.874 -0.10195 151.646 -0.146216C151.194 -0.150997 150.769 -0.143581 150.379 -0.12411C149.299 -0.101326 148.085 -0.133663 146.808 -0.219237C146.808 -0.219237 146.556 -0.250332 146.429 -0.26588C146.788 -0.411768 148.023 -0.265716 148.522 -0.364516C148.826 -0.362717 149.361 -0.350293 149.343 -0.376304C149.301 -0.411012 149.296 -0.443256 149.328 -0.470723C149.36 -0.498189 149.429 -0.520199 149.528 -0.535171C149.628 -0.550143 149.756 -0.557712 149.905 -0.557327C150.053 -0.556943 150.217 -0.548612 150.385 -0.532944C151.791 -0.448183 153.115 -0.424612 154.276 -0.463674C154.717 -0.46292 155.21 -0.437798 155.647 -0.431513C155.915 -0.423943 156.159 -0.428153 156.366 -0.443911C157.422 -0.559966 158.843 -0.568441 160.415 -0.468065C161.175 -0.431977 161.885 -0.427151 162.508 -0.453833C162.952 -0.45861 163.14 -0.376098 163.456 -0.337228L164.797 -0.25529L163.074 -0.152619C163.443 0.0826701 163.735 0.160253 164.337 0.174912C165.214 0.197048 166.069 0.207049 166.895 0.204851C167.507 0.202918 168.011 0.152246 168.839 0.242246C168.985 0.256926 169.126 0.261677 169.238 0.255703C170.207 0.175803 171.374 0.157465 172.66 0.201943C173.325 0.0523223 174.459 0.197793 175.508 0.315002C175.846 0.202298 175.233 0.150563 174.867 0.0817958C175.744 0.088835 176.628 0.0848156 177.534 0.101273C177.806 0.0952811 178.117 0.10553 178.443 0.131211C178.769 0.156892 179.1 0.197302 179.412 0.249283C179.563 0.28287 179.746 0.308148 179.922 0.319869C180.098 0.331589 180.254 0.328855 180.357 0.312233C180.827 0.26321 181.58 0.308362 181.968 0.225555C182.106 0.206511 182.304 0.203852 182.525 0.218044C182.746 0.232236 182.977 0.26236 183.176 0.303015V0.303015C182.958 0.315699 182.764 0.335674 182.598 0.362499C182.004 0.449637 182.222 0.595237 182.978 0.806914C184.137 0.795272 185.322 0.798579 186.396 0.758684C186.995 0.722871 187.729 0.734066 188.516 0.791012C189.302 0.847959 190.11 0.948396 190.848 1.08103C191.115 1.13204 191.42 1.16736 191.701 1.17999C191.983 1.19263 192.22 1.18164 192.367 1.14922C192.458 1.11171 192.487 1.06425 192.449 1.01095L191.692 0.917663C191.692 0.917663 191.721 0.867885 191.728 0.856824L192.817 0.848461C193.394 0.848171 193.995 0.862833 194.54 0.858656C195.341 0.830876 196.254 0.846361 197.225 0.904147C198.121 0.963401 199.001 1.00819 199.857 1.03812C200.686 1.06892 201.287 0.970718 202.076 0.955034C202.673 0.943213 203.329 0.955846 204.02 0.992441C205.214 1.05734 206.309 1.05747 207.207 0.99279C208.253 1.34125 208.762 1.3979 209.733 1.30375L210.19 1.27685L210.315 1.35159L210.664 1.33515C211.316 1.32051 211.969 1.30588 212.65 1.30066C213.597 1.333 214.62 1.42 215.619 1.55317C215.808 1.57649 216.066 1.65573 216.232 1.71777C216.399 1.77981 216.762 1.96696 217.028 2.08879C216.738 2.17773 216.416 2.26277 216.185 2.36501C216.162 2.38248 216.164 2.40331 216.192 2.42582C216.219 2.44834 216.271 2.47192 216.343 2.49466C216.416 2.5174 216.506 2.53866 216.607 2.55675C216.709 2.57484 216.818 2.58925 216.927 2.59882C217.139 2.61944 217.349 2.63318 217.547 2.63949C218.523 2.65036 219.457 2.64228 220.341 2.61532C220.664 2.57728 221.106 2.57366 221.597 2.60505C222.088 2.63645 222.6 2.70104 223.052 2.7886C224.208 2.73604 225.552 2.75156 226.991 2.83411C228.512 2.78391 230.35 2.88543 231.772 2.77543C231.739 2.83074 231.885 2.92597 232.09 2.98083C232.413 3.06416 232.78 3.14139 233.174 3.20925L236.18 3.34174C236.292 3.40986 236.433 3.47882 236.599 3.54773C236.714 3.60216 236.913 3.65542 237.154 3.69622C237.395 3.73702 237.661 3.76216 237.893 3.7663C238.491 3.78649 238.993 3.74135 239.706 3.85287C238.607 3.95829 237.126 3.94429 235.526 3.81335C234.022 3.71376 232.576 3.66399 231.241 3.66589C230.8 3.66513 230.221 3.67095 230.083 3.73119C229.778 3.90144 228.98 3.87453 228.05 3.84312C227.319 3.80875 226.651 3.8126 226.102 3.85438C225.553 3.89616 225.137 3.97466 224.89 4.08343C224.827 4.18852 224.977 4.27821 225.618 4.33936L228.286 4.58456C228.679 4.55303 229.052 4.51572 229.403 4.47276C229.995 4.41571 230.726 4.40005 231.539 4.427C232.352 4.45395 233.225 4.52279 234.091 4.62815C234.533 4.68257 234.975 4.73698 235.295 4.71113C235.577 4.68143 235.836 4.64586 236.071 4.6047C236.118 4.57712 236.137 4.54537 236.127 4.51068C236.297 4.52682 236.467 4.54779 236.632 4.57288C237.949 4.86558 238.969 4.86051 239.896 4.78459C240.147 4.76202 240.337 4.72615 240.592 4.69805C240.846 4.66995 240.935 4.63348 241.166 4.6441C243.007 4.7401 243.537 4.41946 245.089 4.43234C245.165 4.41982 245.212 4.40109 245.226 4.3779C245.239 4.3547 245.22 4.32778 245.168 4.29961C245.059 4.27417 244.932 4.2523 244.799 4.23599C244.667 4.21969 244.533 4.20949 244.41 4.20632C243.696 4.16518 243.066 4.17779 242.626 4.24201C242.315 4.26826 241.986 4.28917 241.64 4.30463L240.086 3.84031C241.591 3.88287 243.015 3.8826 244.324 3.83948C244.61 3.81527 245.093 3.85698 245.495 3.86491L248.453 3.90831C249.061 3.91191 249.579 3.83912 250.427 4.0088C250.427 4.0088 250.987 4.03616 251.136 4.01299C251.285 3.98982 251.948 3.84573 252.343 3.75186C252.801 3.77863 253.436 3.85084 253.722 3.82663C254.221 3.76716 254.653 3.69092 255.01 3.59929L256.796 3.73011C256.794 3.84632 256.729 3.95564 256.602 4.05642C256.463 4.15361 256.467 4.27028 256.616 4.39689C256.764 4.52349 257.052 4.65643 257.456 4.78486L259.22 5.46503C259.507 5.51058 259.814 5.54124 260.098 5.55285C260.383 5.56446 260.63 5.55646 260.808 5.52992C261.567 5.45116 262.417 5.38959 263.176 5.31082C264.155 5.43132 263.904 5.62594 264.615 5.79666L266.921 6.08041C267.272 6.34335 267.631 6.59523 266.561 6.68326C266.349 6.69865 266.492 6.79941 266.298 6.84081C267.129 7.03814 268.043 7.09721 268.886 7.21875C269.218 7.30616 269.496 7.39868 269.706 7.49186C269.937 7.63215 270.404 7.77546 271.008 7.89083C271.611 8.00621 272.302 8.0844 272.932 8.10852C273.988 8.18238 275.068 8.29333 276.126 8.43638C276.488 8.48612 276.859 8.52237 277.215 8.54266C277.571 8.56296 277.904 8.56684 278.192 8.55405C279.215 8.53153 280.081 8.45407 280.734 8.32673C281.38 8.21866 282.25 8.16658 283.265 8.17519C285.002 8.38898 285.353 8.71112 286.404 8.99485L284.588 9.02666C284.522 9.13728 284.642 9.27675 283.898 9.27419C283.154 9.27164 283.531 9.37748 283.773 9.48436C283.858 9.53813 284.024 9.59343 284.243 9.64092C284.461 9.6884 284.719 9.72514 284.973 9.74492L286.519 9.88173C287.067 9.93379 287.597 9.95602 288.052 9.94598C288.507 9.93594 288.868 9.89402 289.095 9.82482C289.357 9.7591 289.718 9.71465 290.156 9.69419C290.715 9.64058 291.174 9.56085 291.518 9.45802L293.7 9.60784C293.792 9.50451 294.092 9.43206 294.548 9.40273C295.004 9.3734 295.589 9.389 296.202 9.44689L297.673 9.53884C299.308 9.63917 299.667 9.60614 300.146 9.31481L298.185 8.79443C298.47 8.65736 298.745 8.53688 299.02 8.4164C298.532 8.24496 297.88 8.08281 297.131 7.94641C296.432 7.79984 295.714 7.6579 294.978 7.5211C294.18 7.38133 293.337 7.25978 292.346 7.10221C292.173 7.05124 291.922 6.96094 291.601 6.87394C291.28 6.78939 290.945 6.70652 290.597 6.62564C290.663 6.51502 290.722 6.41547 290.595 6.28706C291.205 6.32804 291.836 6.3997 292.43 6.49558C293.023 6.59147 293.562 6.70856 293.996 6.83631C294.07 6.85897 294.159 6.88025 294.259 6.89871C294.359 6.91718 294.468 6.93241 294.577 6.94335C295.649 7.02185 296.161 7.18583 296.685 7.38689C297.038 7.48967 297.493 7.58095 297.987 7.64805C298.935 7.76466 299.862 7.91446 300.768 8.04378C301.045 8.08687 301.334 8.12234 301.621 8.14872C302.568 8.23261 303.521 8.34992 304.432 8.49467C304.729 8.53146 305.014 8.58014 305.263 8.63666C305.513 8.69317 305.719 8.75586 305.865 8.81951C305.64 8.88924 305.518 8.97726 305.507 9.07826C305.468 9.14462 306.133 9.27992 306.447 9.37799C306.762 9.47605 306.145 9.42985 305.936 9.43971C305.077 9.45868 304.918 9.49844 305.432 9.71609C305.604 9.78453 305.718 9.85301 305.767 9.91727C305.816 9.98153 305.799 10.0402 305.718 10.0897C305.596 10.2943 305.224 10.4623 304.969 10.6625C305.365 10.7943 306.027 10.9351 306.099 11.0984C306.134 11.1346 306.207 11.1729 306.314 11.2107C306.42 11.2484 306.557 11.2846 306.715 11.3166C307.131 11.3857 307.509 11.4683 307.82 11.5581C308.131 11.6478 308.366 11.7423 308.508 11.8342C308.555 11.8721 308.667 11.9125 308.822 11.947C308.978 11.9816 309.165 12.0078 309.346 12.0204C309.563 12.0359 309.757 12.0339 309.888 12.0147C310.02 11.9955 310.078 11.9606 310.052 11.9173C310.057 11.8358 310.028 11.7509 309.966 11.6633C310.002 11.6025 310.039 11.5416 309.895 11.4409C310.543 11.4777 311.222 11.5513 311.86 11.6539C312.498 11.7566 313.07 11.8842 313.514 12.0229C314.005 12.1664 314.458 12.3171 315.002 12.4849C314.889 12.673 314.889 12.673 316.047 13.0055L322.188 13.1676L323.447 13.3878C324.62 13.5797 324.899 13.5666 325.636 13.4674L326.133 13.3741C327.175 13.5023 328.375 13.6501 329.027 13.4097C329.239 13.5664 329.377 13.619 329.329 13.6427C329.018 13.8739 328.477 14.0701 327.728 14.2235C327.537 14.2593 327.403 14.314 327.18 14.346C326.463 14.5266 326.297 14.8055 326.715 15.1259C326.923 15.2676 327.225 15.4128 327.611 15.5567C327.046 15.7564 326.297 15.9218 325.385 16.0486C324.611 16.1467 323.974 16.278 323.491 16.4389C323.058 16.601 322.409 16.7229 321.582 16.7976C321.163 16.8293 320.857 16.8919 320.695 16.9792C320.646 17.2154 320.757 17.4683 321.025 17.7323C321.075 17.8126 321.219 17.8994 321.444 17.9858C321.669 18.0721 321.969 18.1558 322.321 18.2302C322.321 18.2302 322.491 18.2867 322.573 18.3205C322.641 18.6066 322.386 18.8587 321.827 19.0598C321.735 19.1169 321.547 19.1582 321.284 19.1791C321.021 19.2 320.691 19.1999 320.332 19.1787C319.573 19.1446 318.863 19.1404 318.129 19.1212C317.338 19.0941 316.64 19.1155 316.111 19.183C315.582 19.2505 315.239 19.3617 315.12 19.5049C315.112 19.5454 315.089 19.5842 315.051 19.621C315.029 19.64 315.016 19.6604 315.015 19.6819L316.701 20.1507L314.793 20.3373C314.681 20.5254 315.597 20.6381 316.056 20.7777L315.772 20.8556C315.407 20.8997 314.915 20.8154 314.47 20.7665L314.027 20.7121L313.975 20.8006C313.699 20.9211 312.695 20.7856 312.304 20.8739C311.912 20.9623 312.192 21.062 312.778 21.158C313.186 21.2293 313.624 21.2862 314.06 21.3243C314.495 21.3625 314.916 21.3809 315.291 21.3782C315.515 21.3687 315.701 21.3472 315.838 21.3148C316.63 21.177 317.504 21.0585 318.456 20.9603C319.185 20.872 320.099 20.8345 321.132 20.8503C321.435 20.8437 321.8 20.8646 322.164 20.9093C322.528 20.9541 322.867 21.0199 323.121 21.0952V21.0952L323.656 21.1076C323.656 21.1076 323.949 21.1852 323.908 21.1979C323.704 21.4278 323.941 21.7088 324.582 21.9993V21.9993L324.024 22.0256C323.227 21.9987 323.732 22.1737 323.613 22.26C323.047 22.2437 322.31 22.1709 322.042 22.2803L321.64 22.2723L321.797 22.2918L321.988 22.2559L322.738 22.4195C322.383 22.447 322.126 22.4806 321.812 22.4954C321.638 22.5082 321.5 22.531 321.406 22.5622C321.312 22.5934 321.263 22.6325 321.263 22.6771C321.263 22.7458 321.17 22.8035 320.991 22.8449C320.812 22.8862 320.554 22.9098 320.24 22.9134C319.866 22.9149 319.652 22.9895 319.433 23.016L320.386 23.4656C320.386 23.4656 319.912 23.4073 320.17 23.4866L320.203 23.4313L320.78 23.5438C321.195 23.6425 321.486 23.6664 321.732 23.5957C321.977 23.525 321.921 23.619 322.039 23.592C321.996 23.6639 321.729 23.7141 321.5 23.7571C321.235 23.7909 320.936 23.8158 320.608 23.8314C321.199 24.1476 321.228 24.157 320.364 24.2407C319.501 24.3244 319.798 24.4501 319.076 24.468C318.353 24.486 319.175 24.6999 319.659 24.7416C320.017 24.769 320.383 24.8117 320.73 24.8668C321.078 24.9219 321.399 24.988 321.672 25.0606L321.527 25.304C321.314 25.2838 321.101 25.2576 320.895 25.2262C320.195 25.0926 319.558 24.9667 318.936 25.0444L319.232 25.2293L317.059 25.1221C317.115 25.2607 317.446 25.4186 317.983 25.5624V25.5624C317.902 25.6414 317.852 25.7245 317.834 25.8113C317.798 25.8721 317.583 25.8338 317.444 25.8404C316.946 25.8506 316.538 25.8918 316.254 25.9605C315.971 26.0291 315.821 26.1231 315.819 26.2341C315.763 26.3281 316.528 26.5232 317.007 26.5168C318.201 26.5356 319.493 26.6079 320.812 26.7299C321.616 26.7457 321.729 26.4985 323.053 26.6673C323.079 26.7814 322.909 26.8739 322.57 26.9306C322.23 26.9873 321.739 27.0053 321.17 26.9818C321.493 27.2353 323.285 27.3014 323.364 27.5664C322.918 27.5477 322.441 27.5036 321.98 27.4386C321.52 27.3736 321.091 27.2898 320.737 27.1957C320.661 27.1724 320.565 27.1511 320.459 27.1334C320.352 27.1158 320.238 27.1026 320.128 27.0949C320.018 27.0873 319.914 27.0854 319.827 27.0896C319.74 27.0938 319.673 27.1038 319.631 27.1188C319.879 27.2146 320.152 27.3254 320.463 27.429C320.774 27.5326 320.849 27.5774 321.073 27.5991C322.747 27.8051 323.543 28.1761 324.991 28.4197C325.37 28.4663 325.417 28.6146 325.088 28.5979C324.775 28.5811 324.491 28.5833 324.269 28.6042C324.047 28.6251 323.896 28.6639 323.831 28.7162C323.588 28.7773 323.285 28.8259 322.931 28.8608C324.416 29.2415 326.187 29.5779 328.077 29.8384C328.435 29.8899 328.808 29.9213 329.142 29.928C330.197 29.9284 331.317 29.9586 332.478 30.018C332.89 30.0343 333.271 30.0327 333.6 30.0136C334.678 29.9681 335.534 30.0676 336.316 30.3479L337.61 30.7921C337.567 30.864 337.35 30.9442 337.183 31.0542L338.194 31.2914L345.91 30.745L347.459 31.2741L349.68 31.2447C349.85 31.2599 350.021 31.281 350.185 31.3068C350.634 31.4631 350.986 31.6131 351.473 31.7622C351.96 31.9112 352.831 31.9293 353.438 32.105C354.045 32.2806 354.653 32.2842 355.405 32.3886C355.475 32.5245 355.402 32.6469 355.19 32.7481C355.121 32.8642 354.739 32.936 354.673 33.0466C354.68 33.1584 354.539 33.2533 354.26 33.3227C353.982 33.3921 353.577 33.4339 353.08 33.4442C351.69 33.6822 350.014 33.8517 348.102 33.9475C347.934 33.9545 347.795 33.9706 347.693 33.9948C347.591 34.019 347.528 34.0509 347.509 34.0884C347.512 34.1969 347.384 34.2906 347.136 34.3628C346.888 34.4349 346.525 34.4837 346.074 34.5054C345.954 34.5097 345.863 34.5234 345.813 34.5446C345.642 34.5582 345.518 34.5844 345.452 34.6205C345.386 34.6566 345.38 34.7014 345.436 34.7507C345.492 34.7999 345.607 34.8519 345.771 34.9016C345.934 34.9513 346.14 34.9971 346.369 35.0344C346.701 35.0946 347.04 35.1522 347.385 35.2069C347.365 35.2401 347.023 35.2455 347.073 35.2754C347.208 35.3708 347.239 35.4602 347.164 35.5365C347.089 35.6128 346.91 35.6739 346.641 35.715L348.485 36.4881C349.604 36.5952 350.702 36.7769 351.571 36.9985C351.572 37.0348 351.522 37.0653 351.426 37.0868C351.329 37.1083 351.191 37.1201 351.023 37.1211C350.573 37.1369 350.148 37.1677 349.663 37.1852C349.366 37.1983 349.119 37.227 348.937 37.2698C348.754 37.3125 348.639 37.3684 348.599 37.4342L349.681 37.7218C349.335 37.7919 349.077 37.8256 348.848 37.8686C348.978 37.959 349.201 38.0525 349.501 38.1418C349.8 38.2312 350.168 38.314 350.575 38.3839C350.684 38.3983 350.795 38.4088 350.902 38.4149C351.009 38.4209 351.11 38.4223 351.198 38.419C352.037 38.3204 353.017 38.4945 353.97 38.6593C354.923 38.824 355.44 38.9233 356.143 39.0514L357.489 39.0686C357.829 39.1293 358.133 39.2006 358.376 39.2769C358.619 39.3532 358.794 39.4323 358.888 39.508C358.815 39.6297 358.177 39.563 357.797 39.5755C356.894 39.6513 355.708 39.6351 354.434 39.5297C354.118 39.4909 353.794 39.5223 353.487 39.526C352.824 39.5411 352.187 39.5658 351.579 39.5998C351.178 39.6315 350.804 39.6707 350.458 39.7171C350.365 39.872 351.82 39.9916 350.994 40.0681C351.278 40.1031 351.385 40.1518 351.531 40.1342C352.467 40.2348 353.39 40.2845 354.191 40.2776C355.73 40.2562 357.477 40.3268 359.289 40.4835C361.245 40.6459 363.122 40.714 364.764 40.6824C365.389 40.6805 366.088 40.7138 366.808 40.7796C367.657 40.8707 368.501 40.9281 369.284 40.9478C369.543 40.9485 369.832 40.964 370.127 40.9931C370.422 41.0222 370.714 41.064 370.981 41.1151V41.1151C370.958 41.1538 370.704 41.1819 370.76 41.2007C371.571 41.4905 371.899 41.7921 373.146 42.0881C373.999 42.193 374.978 42.3135 375.536 42.1744C376.093 42.0352 375.893 41.9156 374.784 41.5594C375.025 41.5543 375.315 41.5709 375.603 41.6064C375.892 41.642 376.161 41.6941 376.363 41.7538L377.323 42.0203L378.188 42.2752C378.112 42.4024 378.052 42.5019 377.99 42.607C377.891 42.7186 377.999 42.8545 378.3 42.9955C378.482 43.0725 378.64 43.1495 378.773 43.2259C379.314 43.5312 379.471 43.8198 379.225 44.0593C378.756 44.4036 378.102 44.7204 377.271 45.006C376.393 45.2839 375.913 45.6344 375.19 45.9373C374.821 46.0752 374.373 46.1988 373.851 46.3068C372.86 46.547 371.775 46.7755 370.781 47.0213C369.787 47.267 368.664 47.4435 367.56 47.646C365.917 47.8864 364.14 48.094 362.24 48.2676C361.065 48.4198 359.858 48.5681 358.77 48.7429C357.486 48.9401 355.977 49.0816 354.282 49.1641C352.784 49.2628 351.446 49.4088 350.293 49.5993C350.172 49.6199 350.077 49.6462 350.009 49.6772C349.802 49.8715 349.22 50.0084 348.353 50.067C348.406 50.1239 348.473 50.1817 348.555 50.2403C348.675 50.3101 348.7 50.3753 348.627 50.4277C348.553 50.48 348.385 50.517 348.143 50.5339C347.449 50.582 346.873 50.6637 346.439 50.7754C346.28 50.8034 346.181 50.8442 346.151 50.8943C346.121 50.9444 346.161 51.0023 346.268 51.063C346.362 51.1255 346.369 51.183 346.287 51.228C346.206 51.273 346.04 51.3036 345.812 51.3156C345.225 51.3748 344.596 51.4223 343.93 51.458C342.513 51.5368 340.864 51.5359 339.084 51.4553C338.895 51.432 338.704 51.4678 338.483 51.4406C337.224 51.3503 336.055 51.3363 335.117 51.4004C334.017 51.4253 332.868 51.4204 331.708 51.432C330.033 51.4242 328.487 51.4717 327.115 51.5732C325.546 51.4751 324.665 51.6456 323.341 51.6489C322.119 51.6664 320.96 51.7085 319.876 51.7746C318.129 51.8623 316.388 51.939 314.666 52.0416C313.05 52.0906 311.562 52.1841 310.228 52.3206C309.717 52.3824 308.791 52.2862 308.443 52.4155C308.094 52.5448 307.391 52.5296 306.823 52.5725L305.031 52.6784C304.723 52.7036 304.384 52.7196 304.02 52.7261C302.354 52.7347 301.2 52.9074 299.653 52.9426L299.495 52.9232C296.749 53.1798 293.607 53.3207 290.161 53.3416C288.148 53.4203 285.946 53.4166 283.81 53.4742C283.301 53.5896 282.097 53.4474 281.458 53.5528C280.819 53.6582 279.775 53.5891 278.951 53.6064C278.128 53.6238 277.322 53.6671 276.442 53.6656C275.677 53.6661 275.031 53.7132 274.563 53.8025C273.495 53.9502 272.193 54.037 270.715 54.0591C268.76 54.0975 266.911 54.1846 264.923 54.1654C264.951 54.2731 264.829 54.3646 264.569 54.4307C264.309 54.4968 263.921 54.5351 263.444 54.5415C261.318 54.5826 259.389 54.6896 257.235 54.7212L256.659 54.7215L250.215 54.7833C248.479 54.7952 246.806 54.815 245.035 54.8285C244.372 54.7469 244.356 54.8874 243.897 54.8606C243.769 54.7914 243.617 54.7609 243.392 54.7985L243.342 54.8814L235.988 54.9915C233.109 55.0719 230.08 55.0961 226.928 55.0637C226.18 55.0718 225.482 55.0993 224.845 55.1457C224.254 55.1626 223.639 55.1701 223.001 55.1681C222.139 55.1472 221.297 55.1367 220.477 55.1365C218.323 55.1682 216.062 55.1511 213.703 55.1279C211.343 55.1047 209.556 55.1459 207.456 55.1428C206.034 55.1399 204.619 55.126 203.147 55.0932C202.444 55.078 201.578 54.9951 200.85 54.9649C200.122 54.9347 199.885 54.9352 199.789 54.9827C199.472 55.1159 198.676 55.0298 198.039 55.0167C196.798 54.9946 196.622 54.9492 196.285 54.6049L197.808 54.4955C198.181 54.4602 198.65 54.454 199.171 54.4775C199.691 54.501 200.245 54.5534 200.779 54.6296C200.989 54.6623 201.209 54.6881 201.425 54.7056C201.642 54.7231 201.851 54.7319 202.04 54.7314C203.577 54.7128 205.092 54.6736 206.569 54.6417L206.784 54.6208L206.798 54.3137C206.603 54.2836 206.4 54.2587 206.198 54.2399L198.791 54.0406C197.091 53.9917 195.327 53.8814 193.658 53.8364C191.99 53.7914 191.091 53.7638 189.797 53.7173C189.251 53.6908 188.694 53.656 188.13 53.6131C188.163 53.5835 188.182 53.5521 188.186 53.5191C188.216 53.4693 188.256 53.4029 188.016 53.3497C187.755 53.2746 187.406 53.2104 187.039 53.17C186.694 53.1434 186.359 53.1282 186.048 53.1253C184.546 53.0996 182.83 52.9374 181.267 52.6734L180.721 52.8496C178.373 52.7506 175.99 52.6533 173.538 52.5592C173.047 52.5335 172.531 52.4843 172.03 52.4152C171.494 52.3491 171 52.2112 170.434 52.1357C169.876 52.0813 169.321 52.039 168.781 52.0093C168.927 51.964 169.12 51.9277 169.354 51.9017C169.583 51.8926 169.751 51.8643 169.831 51.8208C169.912 51.7774 169.902 51.7211 169.803 51.6602C169.628 51.5555 169.551 51.457 169.931 51.4445C170.283 51.4206 170.534 51.3689 170.656 51.2956C170.778 51.2222 170.765 51.1302 170.619 51.0304C170.555 50.9721 170.51 50.9149 170.484 50.8594V50.8594L170.326 50.84C169.805 50.6334 168.765 50.5588 168.018 50.3897C167.666 50.3407 167.301 50.3125 166.981 50.3095C166.155 50.2732 165.351 50.2574 164.497 50.2116C164.089 50.1906 163.662 50.1522 163.242 50.0987C162.642 50.0249 162.579 50.0171 162.231 49.7486C162.772 49.7533 163.2 49.7132 163.445 49.6351C163.689 49.557 163.734 49.4456 163.571 49.3199C163.125 49.0453 162.653 48.7558 160.634 48.5607C161.292 48.551 161.926 48.5319 162.532 48.5034C162.709 48.4973 162.841 48.4771 162.911 48.4456C162.981 48.4141 162.986 48.3728 162.925 48.3271C162.863 48.2815 162.739 48.2338 162.568 48.1903C162.397 48.1468 162.188 48.1097 161.969 48.0838C160.903 47.9285 159.791 47.8245 158.758 47.7836C157.888 47.7655 157.102 47.7757 156.085 47.7752L154.885 47.6275C154.905 47.5943 154.728 47.5489 154.773 47.5307C155.078 47.3604 155.415 47.194 155.761 47.0111C155.208 46.9123 154.728 46.793 154.378 46.6669C154.027 46.5408 153.82 46.413 153.779 46.2982C153.75 46.2635 153.757 46.2319 153.802 46.2056C153.847 46.1794 153.928 46.1591 154.04 46.1461C154.355 46.1239 154.599 46.0815 154.752 46.0221C154.905 45.9627 154.963 45.8879 154.922 45.8035L153.989 45.4928C151.179 45.271 148.419 45.1126 145.761 45.0204L143.362 44.9507C143.073 44.8676 143.162 44.8311 143.435 44.829C143.707 44.827 144.473 44.85 145.008 44.8624C145.47 44.8787 145.88 44.868 146.199 44.8313C146.518 44.7946 146.735 44.7332 146.828 44.653L146.022 44.2986C146.062 44.2322 146.118 44.1382 146.555 44.1445C146.854 44.1368 147.074 44.1034 147.179 44.0496C147.285 43.9959 147.271 43.9249 147.139 43.8482C147.118 43.7927 147.149 43.7422 147.228 43.6989C147.874 43.6953 148.517 43.6972 149.103 43.6804C149.376 43.6748 149.607 43.6542 149.779 43.6201C149.952 43.586 150.062 43.5392 150.102 43.4828C150.123 43.4277 150.072 43.365 149.952 43.2997C149.832 43.2344 149.647 43.1683 149.411 43.1068C148.492 43.0307 147.652 43.0297 147.074 43.1041C146.868 43.1623 146.537 43.1942 146.125 43.1954C145.712 43.1966 145.238 43.1671 144.765 43.1108C144.222 43.0459 143.681 43.0173 143.238 43.0303C142.796 43.0433 142.481 43.097 142.349 43.1816C141.793 43.1487 141.299 43.1236 140.812 43.0874C140.238 43.0418 139.695 43.0283 139.242 43.0485C138.518 43.0628 137.737 43.0544 136.918 43.0237C134.557 42.9468 132.193 42.8754 129.907 42.8434C129.302 42.8343 128.779 42.8589 128.18 42.8388C127.582 42.8186 127.109 42.8731 126.361 42.7632C126.219 42.7462 126.075 42.7352 125.942 42.7312C125.809 42.7272 125.69 42.7303 125.595 42.7402C124.281 42.8271 122.741 42.8394 121.065 42.7763C118.769 42.7609 116.388 42.7172 114.089 42.7073C113.414 42.7158 112.777 42.7387 112.184 42.7756C111.732 42.7979 111.259 42.813 110.767 42.8209C110.39 42.8279 110.029 42.8072 110.093 42.9279C110.156 43.0485 109.591 42.973 109.265 42.9507C108.146 42.8922 107.003 42.8131 105.847 42.7141C104.708 42.6065 103.593 42.5439 102.567 42.53C101.826 42.5219 101.062 42.5525 100.109 42.3878C100.146 42.327 100.182 42.2661 100.389 42.2026C99.6123 42.0278 98.7259 41.8774 97.8033 41.7638C96.8806 41.6503 95.9483 41.5768 95.0835 41.5496L93.8909 41.2188C93.5973 41.1799 93.2975 41.1516 93.0098 41.1356C92.7221 41.1196 92.4526 41.1162 92.2175 41.1256C92.0359 41.1304 91.8145 41.1181 91.5941 41.091C91.3736 41.0638 91.1689 41.0237 91.0174 40.9779C90.7909 40.9196 90.5144 40.8694 90.2222 40.8334C89.9301 40.7975 89.6354 40.7774 89.3752 40.7758C88.5558 40.7398 87.6811 40.6567 86.8407 40.5351C86.6226 40.4637 86.4859 40.39 86.4475 40.3231C86.4092 40.2561 86.4708 40.1988 86.6248 40.1582C86.8731 40.0865 87.0124 39.9952 87.0345 39.8897C87.0566 39.7843 86.961 39.6669 86.7533 39.5447C86.647 39.4697 86.6115 39.3987 86.6489 39.336C86.6863 39.2732 86.7959 39.2201 86.971 39.1797C87.6248 38.993 87.4499 38.8884 86.3803 38.5786C86.2066 38.527 85.9971 38.4787 85.7653 38.4369C85.5335 38.3951 85.2843 38.3606 85.0336 38.3357C84.4454 38.2852 83.8652 38.2477 83.3037 38.2237C82.9879 38.1849 82.664 38.2162 82.3001 38.2011C80.4807 38.1256 80.2144 38.0038 79.6251 37.7413L79.1957 37.5519C78.3992 37.3985 77.5282 37.2711 76.6453 37.1788C75.7624 37.0866 74.8897 37.0318 74.0899 37.0185C73.7721 37.0175 73.4066 36.9912 73.0496 36.9439C71.8878 36.7989 70.7112 36.6986 69.5978 36.6496C68.904 36.622 68.1561 36.5506 67.4439 36.444C66.7318 36.3374 66.0856 36.2001 65.5831 36.0486C65.1318 35.9122 64.5412 35.7897 63.8937 35.6982C63.1358 35.6049 63.0656 35.4954 63.4888 35.4109C63.9121 35.3265 64.621 35.2178 65.2502 35.129C65.4692 35.0989 65.6049 35.0498 65.6421 34.9873C65.6794 34.9248 65.6168 34.8513 65.4613 34.7751C65.3615 34.6446 65.3442 34.5207 65.4098 34.4066C65.4449 34.3591 65.4207 34.3048 65.3388 34.2471C65.257 34.1894 65.1193 34.1298 64.9352 34.0722C64.751 34.0147 64.5247 33.9605 64.2714 33.9135C64.0181 33.8664 63.7437 33.8275 63.4668 33.7994C62.2983 33.6555 61.1614 33.5156 59.9698 33.4105C59.4704 33.361 58.9715 33.2996 58.4854 33.2278C57.4904 33.0504 56.4259 32.9032 55.3537 32.7949C54.8448 32.7465 54.3473 32.6618 53.9688 32.5591C52.7751 32.2827 51.6751 31.992 50.6889 31.6924C50.4512 31.5994 50.1402 31.5088 49.7753 31.4261C49.4105 31.3434 48.9997 31.2704 48.5687 31.2118C48.2213 31.169 47.9385 31.0748 47.6707 31.0122C47.4762 30.8671 47.4554 30.7329 47.6103 30.6222C47.7653 30.5115 48.091 30.4279 48.5568 30.3792C48.9984 30.3207 49.4117 30.2528 49.7935 30.1811C50.2537 30.1231 50.8009 30.0882 51.4146 30.0778C52.1414 30.0467 52.6788 29.9577 52.9568 29.8224C50.9672 29.5775 49.0751 29.2259 47.3311 29.3081L46.006 29.0856C46.0588 28.9972 46.1049 28.9197 46.1478 28.8478C46.4629 28.7169 46.5614 28.5519 46.4348 28.3666C46.3304 28.277 46.3398 28.1955 46.4621 28.1303C46.5843 28.065 46.815 28.0184 47.1309 27.9952C49.0022 27.7565 51.1661 27.5954 52.9209 27.3246C53.4712 27.2737 54.1152 27.2506 54.8261 27.2563C55.5138 27.24 55.485 27.1177 54.6936 26.9669C54.2494 26.8881 53.7966 26.8125 53.337 26.7405C51.3102 26.7286 50.4845 27.09 48.1715 26.9894L47.0995 26.5131C46.8096 26.5057 46.5282 26.5028 46.2572 26.5044L42.379 26.6979C42.0559 26.7076 41.8045 26.7407 41.6532 26.7935C41.5019 26.8462 41.4568 26.9165 41.523 26.9963C41.5493 27.0939 41.4958 27.1835 41.3647 27.2617C41.2801 27.3165 41.3342 27.3894 41.5151 27.4643C41.9229 27.6332 41.3997 27.6579 41.0693 27.7003C40.9848 27.7045 40.8874 27.704 40.7828 27.699C40.6781 27.694 40.5682 27.6846 40.4595 27.6712C40.3508 27.6578 40.2455 27.6408 40.1496 27.6211C40.0536 27.6014 39.9691 27.5795 39.9008 27.5565C39.3186 27.3958 38.8095 27.2263 38.2372 27.049C38.6435 26.8793 38.1655 26.6008 38.7994 26.4473C38.8703 26.4167 38.8987 26.3793 38.8828 26.3375C38.8669 26.2958 38.8071 26.2505 38.707 26.2044C38.4488 26.0856 38.3259 25.9697 38.3505 25.8685C38.3752 25.7673 38.5465 25.6844 38.8473 25.628L38.8836 25.5672C38.0903 25.3627 38.3005 25.1808 37.9889 24.9643L37.2257 24.8229C35.3271 24.4823 35.3237 24.4879 33.6891 24.5004C33.3596 24.3708 33.7782 24.3511 34.0921 24.3363L36.7213 24.1909C38.4403 24.0938 40.2093 24.0265 42.1296 23.9898C44.0499 23.953 46.1908 23.8306 48.1756 23.7425C48.276 23.7356 48.3528 23.7221 48.3995 23.7031C48.4462 23.6841 48.4615 23.66 48.4443 23.633C48.3654 23.6039 48.2621 23.5757 48.1421 23.5506C48.0221 23.5256 47.8884 23.5043 47.7508 23.4883C47.1192 23.4106 46.4711 23.3605 45.798 23.2955L44.5432 23.1826L44.1572 23.0342C43.9059 22.9439 43.7343 22.8337 43.4001 22.7688C43.1247 22.7204 42.8257 22.6837 42.5343 22.6624C42.2429 22.6412 41.9697 22.6362 41.7433 22.648C41.1155 22.6776 40.5475 22.7205 39.9479 22.7595C39.3484 22.7985 39.0179 22.8409 38.498 22.8601C37.4417 22.8688 36.4209 22.8918 35.4399 22.9289C34.6137 23.0169 33.8494 23.1212 33.1521 23.241C32.717 23.2884 32.3102 23.3452 31.5673 23.2834C31.2148 23.2275 30.9109 23.1539 30.7092 23.0758C30.5076 22.9978 30.4213 22.9202 30.4657 22.857C30.5055 22.8074 30.6184 22.7681 30.7935 22.743C30.9687 22.7178 31.2004 22.7075 31.4668 22.713C32.2125 22.7039 32.902 22.6732 33.5215 22.6216C34.3838 22.528 35.4334 22.4877 36.6093 22.5029C37.008 22.5164 37.2753 22.4662 37.6241 22.4497C37.9729 22.4333 38.2684 22.3925 38.6573 22.4225C39.8654 22.5 40.4446 22.3813 41.1686 22.3042C41.4137 22.27 41.5655 22.2147 41.6074 22.1445C41.6494 22.0742 41.5797 21.9917 41.4061 21.906C41.072 21.7353 40.6632 21.5636 40.1862 21.3937C39.9407 21.3102 39.6262 21.2308 39.2673 21.162C38.9085 21.0931 38.515 21.0365 38.1178 20.9966C37.88 20.8921 37.7532 20.7893 37.7488 20.6975C37.7443 20.6058 37.8624 20.5279 38.0923 20.4711C38.6782 20.3413 39.1975 20.2093 40.5103 20.2819C41.1275 20.3095 41.7083 20.3149 42.2297 20.2976C43.3863 20.2739 44.7203 20.3257 46.1062 20.4482C46.4648 20.4795 46.8172 20.5009 47.1531 20.5117C49.549 20.5869 51.8318 20.6245 54.1212 20.651C55.334 20.6637 56.5567 20.6598 57.8227 20.6969C60.7918 20.7774 63.4946 20.736 66.3604 20.7622C67.8613 20.7757 69.2048 20.7215 70.3203 20.6025C70.5375 20.5626 70.7241 20.516 70.8778 20.4633C70.1386 20.3251 69.3266 20.2156 68.5197 20.1454C67.7128 20.0752 66.9379 20.0466 66.2693 20.0624C65.9018 20.1011 65.4267 20.1082 64.8971 20.0828C64.3675 20.0575 63.8043 20.0007 63.27 19.9188V19.9188L64.8232 19.8725C65.8531 19.8508 66.908 19.8441 67.9096 19.8131C69.5009 19.7596 70.9757 19.6739 72.6235 19.6393C73.9539 19.6074 75.1445 19.5259 76.1577 19.3975C76.8897 19.3037 77.7258 19.2373 78.6488 19.1994C79.305 19.1793 79.305 19.1793 79.7244 18.9875C79.3916 18.8634 78.9613 18.8461 78.5559 18.8437C76.1256 18.7656 73.8129 18.7519 71.6647 18.8029C70.5808 18.8074 69.6193 18.86 68.8262 18.9582C68.632 18.9996 68.1352 18.98 67.7364 18.9665C66.4863 18.9461 65.2916 18.952 64.1664 18.9843C62.6108 19.0381 60.8783 19.0253 59.0361 18.9465C58.6868 18.8501 59.0889 18.858 59.1087 18.8248C60.5355 18.763 61.934 18.6917 63.3891 18.6393C63.7868 18.6206 64.212 18.6113 64.6598 18.6116C66.3317 18.6441 67.7248 18.5541 68.6441 18.354C68.6903 18.2765 69.2951 18.2857 69.5623 18.2355C69.6938 18.192 69.7814 18.1408 69.8224 18.0834C69.4331 17.9405 68.9928 17.9398 68.6539 17.9396C67.6705 17.9556 66.7244 17.9858 65.8202 18.0302C64.9797 18.0724 64.0493 18.0837 63.0542 18.0637C62.3199 18.0446 61.692 18.0742 60.9511 18.0661C60.5491 18.0491 60.1331 18.0218 59.7114 17.9848C60.1809 17.8851 60.8192 17.8239 61.5813 17.8053C62.1591 17.7458 62.8817 17.7279 62.9741 17.573C62.7011 17.4622 62.3971 17.4604 62.1529 17.4719C61.6447 17.4715 61.1538 17.4785 60.6828 17.4928C59.6841 17.5243 58.6027 17.5248 57.4615 17.4941C56.8606 17.4827 56.2904 17.4861 55.7604 17.5044C54.5594 17.5288 53.4083 17.583 52.3087 17.608C50.0561 17.6335 48.0015 17.7249 45.8371 17.7732C45.3554 17.7851 44.9235 17.827 44.2886 17.7548C43.6537 17.6826 43.6254 17.6731 43.5505 17.6283C43.3728 17.5535 43.319 17.4809 43.4001 17.4258C43.526 17.3742 43.7714 17.3455 44.0924 17.3447C46.0273 17.2627 47.8625 17.1475 49.5866 16.9998C50.3453 16.9703 51.0101 16.9099 51.5577 16.8209C51.992 16.7596 52.5073 16.7191 53.0872 16.7005C53.9307 16.6562 54.81 16.6237 55.7216 16.6032C56.1458 16.5922 56.5064 16.5594 56.7824 16.5067C57.0584 16.454 57.244 16.3824 57.3284 16.2963L56.2108 16.0104C56.0352 15.997 55.8611 15.9855 55.689 15.9758L46.4132 16.1818L45.4946 16.1875C44.4878 16.1704 44.2417 16.1283 43.2867 15.797C45.4662 15.7191 47.1796 15.4919 48.2561 15.1382C47.9974 15.1001 47.7321 15.0675 47.4665 15.041C45.7247 14.9573 44.0782 14.9351 42.5903 14.9751C41.7065 14.9792 40.7978 14.9682 39.8857 14.9628C40.1525 14.7998 41.1743 14.8484 41.8403 14.8116C43.4317 14.7541 44.8389 14.6352 46.017 14.4589C46.4232 14.3901 46.9313 14.3462 47.5182 14.329C48.1055 14.3231 48.5961 14.2815 48.9473 14.2078C49.2985 14.1341 49.4996 14.0305 49.5331 13.9062C49.5884 13.7935 49.7077 13.6889 49.889 13.5937C49.5682 13.4588 49.0588 13.3295 48.4564 13.2302C47.854 13.131 47.2001 13.0685 46.6172 13.0545C45.373 12.9989 44.0825 12.908 42.7785 12.7839C42.1289 12.7213 41.492 12.6854 40.909 12.6785C40.395 12.6732 39.8106 12.628 39.2452 12.5498C38.6797 12.4716 38.1642 12.3648 37.7773 12.2455C37.255 12.0981 36.7675 11.9491 36.2801 11.8001C35.7927 11.651 35.2271 11.4627 34.6582 11.2798C34.1565 11.2513 33.668 11.2329 33.1993 11.225C32.8346 11.2317 32.4091 11.2117 31.973 11.1675C31.5368 11.1233 31.1082 11.0567 30.7378 10.9754V10.9754C30.955 10.8953 31.2007 10.8246 31.4594 10.7318C31.1042 10.6092 30.8467 10.4842 30.7025 10.3644C30.5583 10.2446 30.5305 10.1325 30.6208 10.0349C30.6735 9.9464 30.2874 9.79796 30.154 9.68061C29.9823 9.57945 29.95 9.48505 30.0614 9.40977C30.1729 9.3345 30.4228 9.28187 30.7785 9.25879C31.2197 9.21619 31.5787 9.15204 31.8409 9.06897C31.9276 9.0474 31.9718 9.01787 31.9693 8.98306C31.9669 8.94826 31.9179 8.90931 31.8268 8.86975C31.7357 8.8302 31.6055 8.79131 31.448 8.75665C31.2906 8.72198 31.1109 8.69265 30.9255 8.67133C30.3574 8.61089 29.7932 8.57171 29.2653 8.55605C28.3559 8.52724 27.4853 8.50914 26.6535 8.50175C25.7336 8.49064 24.7102 8.42203 23.6872 8.3029C22.7714 8.19017 21.9503 8.08911 21.5024 7.8737C21.0546 7.65829 20.3386 7.66515 19.788 7.50834C20.0973 7.36698 20.647 7.26877 21.3817 7.2236C21.8624 7.20748 22.2637 7.16517 22.5598 7.09938C22.8559 7.03359 23.0403 6.94577 23.1011 6.84156L21.4296 6.4043C20.0947 6.19844 19.3561 6.35688 17.9137 6.27434L19.3999 6.11293C19.4297 6.09697 19.4409 6.07824 19.4329 6.05762C19.2886 5.73115 19.059 5.66134 17.5398 5.48029L16.6871 5.37535L15.3376 5.2508C15.1214 5.18389 14.972 5.11413 14.904 5.04846C14.8361 4.9828 14.8521 4.92356 14.9505 4.87665C15.1482 4.79776 15.2084 4.69696 15.1254 4.58352C14.9945 4.50837 14.9837 4.43909 15.0948 4.38771C15.206 4.33632 15.432 4.30607 15.7338 4.3022C15.9747 4.29623 15.9926 4.20938 16.1236 4.1602C16.2538 4.09242 16.4766 4.04041 16.7769 4.00771C17.0772 3.975 17.4478 3.96237 17.8638 3.97068C19.0899 3.97746 20.2418 3.95202 21.299 3.8948L21.1095 3.87147C22.2114 3.92171 23.2415 3.9278 24.1497 3.88946C25.0599 3.84119 26.228 3.87215 27.1947 3.84272C27.9817 3.84947 28.5809 3.78267 28.8651 3.65649C29.1404 3.53601 30.1406 3.56413 30.9065 3.58716C31.3603 3.60206 31.7988 3.60837 32.2174 3.60602C32.7793 3.57875 33.4819 3.60446 34.208 3.67885C34.4259 3.70172 34.6405 3.71382 34.8311 3.71399C36.677 3.74526 38.5195 3.78205 40.3403 3.79838C40.7606 3.78898 41.2534 3.8105 41.761 3.86043C41.9743 3.8821 42.1819 3.89108 42.3559 3.88616C45.233 3.83657 48.4797 3.96308 51.3003 3.89466C51.6421 3.8785 52.0206 3.87515 52.425 3.88467C53.3336 3.92486 54.1227 3.899 54.6724 3.81101C54.969 3.7642 55.3492 3.73842 55.7888 3.73528C56.2284 3.73215 56.7178 3.75174 57.2257 3.79281C58.0709 3.84719 58.8521 3.85308 59.4867 3.80988C60.7242 3.76996 62.0256 3.75355 63.3806 3.76077C63.7958 3.76775 64.1608 3.75224 64.4473 3.71543C64.7338 3.67863 64.9341 3.62151 65.0327 3.54852C64.6999 3.42445 64.336 3.40935 63.9905 3.42025C62.6514 3.39198 61.3155 3.35818 60.0014 3.34485C58.8252 3.3068 57.6966 3.29516 56.6321 3.31012C56.1036 3.327 55.4442 3.28851 54.7976 3.20307C54.0052 3.09485 53.1891 3.04108 52.5143 3.05265C52.014 3.05552 51.4859 3.0462 50.9376 3.02482C50.5867 2.99904 50.227 2.95477 49.8955 2.89655C49.7639 2.87127 49.6207 2.85001 49.475 2.83413C49.3294 2.81826 49.1845 2.80813 49.0496 2.80437C48.9146 2.80061 48.7926 2.80331 48.6913 2.81231C48.5901 2.82131 48.5119 2.8364 48.4616 2.85662C47.954 3.02568 46.8189 2.93941 45.847 2.9207C44.3905 2.63457 43.3064 2.80393 41.9451 2.64232C41.8375 2.63161 41.7314 2.62511 41.6334 2.62326C41.5354 2.62141 41.4476 2.62423 41.3752 2.63154C38.7408 2.72881 35.6704 2.64775 32.9045 2.68134C32.5995 2.68625 32.2454 2.66942 31.8826 2.63275C29.5115 2.39004 27.2317 2.32114 25.4891 2.43951C25.277 2.45017 25.0358 2.45063 24.7764 2.44085C23.585 2.34439 22.4456 2.30593 21.4533 2.32869C19.8983 2.32134 18.4032 2.3273 16.8232 2.305C15.7341 2.27328 14.7786 2.30717 14.0526 2.40331C14.0295 2.44202 13.5458 2.40031 13.1754 2.39626C12.9623 2.2988 12.7776 2.21076 12.5579 2.12436C12.3615 2.01746 12.0674 1.90929 11.6954 1.80718C11.3235 1.70507 10.8826 1.61141 10.4023 1.53253C9.58118 1.43147 9.49906 1.28482 10.0736 1.23086C11.5546 1.05236 13.4168 0.979295 15.5234 1.01704C17.2844 1.02006 19.077 1.02697 20.863 1.04493C21.9047 1.06035 23.0029 1.09458 24.0163 1.10058C24.3583 1.11375 24.7095 1.13316 25.0665 1.1586C25.5045 1.19548 25.9297 1.21558 26.3194 1.21781C27.5705 1.18675 28.9667 1.21381 30.4414 1.2977C30.9816 1.316 31.5003 1.32216 31.9898 1.31611C33.1478 1.29334 34.4033 1.31009 35.7229 1.36594C36.5431 1.39743 37.3384 1.4139 38.1005 1.41516C38.3696 1.4186 38.5888 1.39215 38.8481 1.41218C41.1299 1.62179 42.7457 1.47039 44.7994 1.55099C45.7976 1.57347 46.7512 1.57353 47.6469 1.55119C49.3949 1.55227 51.1915 1.57525 53.0298 1.62003C55.4606 1.69362 57.7131 1.66808 60.0341 1.69846C60.4923 1.70485 60.9348 1.70376 61.3582 1.6952C63.4179 1.63866 65.6551 1.65065 68.0151 1.73088C68.551 1.74247 69.0323 1.7283 69.4289 1.68926C69.8255 1.65022 70.1289 1.58715 70.32 1.504C70.4008 1.44693 70.3485 1.37281 70.1729 1.29592C69.8816 1.19774 69.5527 1.10154 69.1915 1.00891L56.0542 0.698072C55.5025 0.68184 54.9644 0.673103 54.4427 0.671894C52.9084 0.669192 51.3269 0.64501 49.7061 0.599471C48.1044 0.556695 46.5743 0.564289 45.0226 0.551409C44.5656 0.547095 44.0964 0.536916 43.6171 0.520901C40.3772 0.39415 37.2179 0.316731 34.1616 0.289202C32.8757 0.285296 31.4866 0.227124 30.1758 0.208269C28.865 0.189414 27.0724 0.182511 25.5174 0.175162L20.703 0.176291C19.756 0.172539 18.8341 0.183732 17.9154 0.189398C16.8006 -0.214966 16.4164 -0.309746 14.9288 -0.486904C14.4198 -0.552253 13.9022 -0.591252 13.4365 -0.599332C11.9597 -0.567366 10.1068 -0.700432 8.70637 -0.682815C7.86136 -0.691505 7.14432 -0.646585 6.62868 -0.552651C6.18106 -0.47893 5.6692 -0.420598 5.10101 -0.378533C3.54453 -0.724457 3.40736 -0.949126 4.57819 -1.03655C4.8954 -1.05688 5.33235 -1.05059 5.56142 -1.09364C5.69285 -1.11986 5.87241 -1.13485 6.08577 -1.13744C6.29913 -1.14003 6.5404 -1.13015 6.79066 -1.10857C7.58049 -1.05196 8.32078 -1.03865 8.93727 -1.06997C9.51745 -1.11142 10.2286 -1.10977 11.0022 -1.06516C11.5707 -0.995194 12.0704 -1.09399 12.562 -1.12253C13.0536 -1.15108 13.457 -1.20235 14.2249 -1.12565C14.3655 -1.11038 14.5051 -1.10121 14.633 -1.09885C14.7608 -1.09649 14.8736 -1.101 14.9626 -1.11204C15.7873 -1.16143 16.7714 -1.15624 17.835 -1.09689C19.4663 -1.03849 20.9969 -1.0363 22.3737 -1.0904C23.1978 -1.13773 23.9005 -1.22167 24.4542 -1.33895C24.6052 -1.37817 24.8293 -1.40169 25.1051 -1.40725C26.4903 -1.38278 27.9944 -1.29069 29.5204 -1.13692C30.0953 -1.07531 30.6694 -1.02657 31.2305 -0.991748C32.3837 -0.914395 33.4992 -0.871049 34.5437 -0.862994C36.0615 -0.861717 37.6418 -0.831955 39.2704 -0.773977C40.2756 -0.741696 41.2441 -0.729781 42.1645 -0.738363C43.1106 -0.742408 44.1207 -0.717783 45.1719 -0.665061C46.2173 -0.622098 47.1385 -0.646852 47.8246 -0.736328C48.0505 -0.784544 48.2325 -0.841799 48.3671 -0.907024C46.8365 -1.11927 45.2534 -1.22714 43.9367 -1.2089C43.4366 -1.22296 43.0214 -1.20877 42.4944 -1.29144L42.4779 -1.26379C42.373 -1.24584 42.2148 -1.24161 42.0334 -1.25189C41.852 -1.26218 41.6601 -1.28626 41.4942 -1.31955V-1.31955C41.5569 -1.42464 41.6162 -1.52419 41.6591 -1.59609C42.6623 -1.58341 43.6364 -1.58443 44.5764 -1.59918C45.3687 -1.62039 46.4444 -1.43457 47.1302 -1.50452C48.4679 -1.41705 49.3196 -1.53782 50.5192 -1.50297C51.7188 -1.46813 53.0401 -1.353 54.2397 -1.31816C55.2864 -1.29903 56.3028 -1.29488 57.2832 -1.3057C57.6216 -1.3209 58.0117 -1.31734 58.4295 -1.29523C59.0169 -1.25362 59.5633 -1.24665 60.0059 -1.27511C60.4486 -1.30358 60.7696 -1.36634 60.9324 -1.45618C60.7791 -1.54034 60.5727 -1.64886 60.3347 -1.76128C60.7726 -1.85364 61.4377 -1.89254 62.2313 -1.87217L63.3527 -1.87663C63.6499 -1.87419 63.877 -1.89916 63.9872 -1.94638C64.0974 -1.99359 64.0822 -2.05943 63.9447 -2.13029C61.8184 -2.48698 61.7401 -2.52631 60.1795 -2.29688L58.1073 -2.40349L58.1423 -2.40513ZM86.1692 -1.42529L86.0114 -1.44472L86.1692 -1.42529ZM344.395 36.525L344.359 36.5858L344.398 36.5195L344.746 36.5622L344.769 36.5235L344.395 36.525ZM293.956 9.85912C293.466 9.79275 292.97 9.73173 292.472 9.67643C292.342 9.66786 292.22 9.66592 292.117 9.67079C292.013 9.67565 291.932 9.68717 291.879 9.70437C291.84 9.77074 292.117 9.81679 292.37 9.84789C292.688 9.88974 293.014 9.91633 293.313 9.92493C293.612 9.93353 293.873 9.92382 294.07 9.8968L294.355 9.87258L293.956 9.85912ZM41.0453 26.0351C41.3686 26.0463 41.6752 26.0481 41.9575 26.0405C43.2099 25.9869 44.4089 25.9088 45.6929 25.8591C47.3129 25.7328 49.1745 25.6813 51.2077 25.7067C52.0021 25.7191 52.6732 25.6781 53.1427 25.5886C53.4237 25.5406 53.7865 25.5125 54.2088 25.5061L59.5841 25.3603C59.9164 25.3301 60.2037 25.2876 60.4392 25.234C59.9654 25.1757 59.6496 25.1369 59.4601 25.1135C59.067 25.107 58.729 25.1248 58.4802 25.1651C58.2129 25.2335 57.7611 25.2605 57.2146 25.2409C56.6628 25.2246 56.1247 25.2159 55.6031 25.2147C54.6179 25.2181 53.6261 25.2326 52.6377 25.2415C52.2531 25.4317 51.1181 25.3454 50.1461 25.3267L49.3953 25.3352C46.9408 25.4338 44.5963 25.5694 42.3731 25.7414C41.9434 25.7705 41.5732 25.8169 41.2739 25.8792C41.1612 25.9278 41.1251 25.9884 41.1684 26.0562L41.0105 26.0368L41.0453 26.0351ZM150.649 44.2149C151.244 44.2279 151.864 44.2545 152.5 44.2943C152.989 44.335 153.467 44.3597 153.914 44.3675C156.417 44.4101 159.026 44.5085 161.705 44.6615C162.055 44.6846 162.392 44.696 162.702 44.6951L164.895 44.6563C165.586 44.6345 165.599 44.6123 165.096 44.3189C164.678 44.2619 164.256 44.21 163.833 44.1634C163.58 44.1323 163.169 44.0818 163.073 44.1293C162.487 44.2591 161.419 44.175 160.52 44.1475C157.918 44.0766 155.235 43.972 152.608 43.8861C152.052 43.8651 151.514 43.8545 150.999 43.8544C150.68 43.85 150.388 43.8583 150.137 43.8789C150.064 43.881 150.002 43.8871 149.957 43.8969C149.912 43.9067 149.883 43.9198 149.874 43.9355C149.865 43.9512 149.874 43.9691 149.903 43.9879C149.931 44.0068 149.977 44.0262 150.038 44.0448C150.253 44.1101 150.502 44.1727 150.775 44.2305L150.649 44.2149ZM169.709 1.62571L172.272 1.59092C172.58 1.58719 172.84 1.54803 173.169 1.56478C174.924 1.61785 176.549 1.60307 177.975 1.52106C178.461 1.48759 179.029 1.48089 179.648 1.50135C181.544 1.56195 183.333 1.56445 184.966 1.50876C186.021 1.49758 187.009 1.46004 187.914 1.39669C187.984 1.38199 188.027 1.36203 188.042 1.33816C188.056 1.3143 188.04 1.2871 187.997 1.25843C187.985 1.24031 187.954 1.22081 187.906 1.2013C187.857 1.18178 187.792 1.16269 187.716 1.14535C187.639 1.12802 187.552 1.11285 187.462 1.10088C187.371 1.08892 187.278 1.08044 187.19 1.07604C186.046 0.990292 184.961 0.960421 184.022 0.988848C183.151 1.02286 182.214 1.03281 181.224 1.01855C180.277 1.0148 179.635 1.1257 178.465 1.04108C177.97 1.01321 177.533 1.02239 177.229 1.06706C176.616 1.14112 175.761 1.14524 174.815 1.07869C174.249 1.04501 173.709 1.03056 173.213 1.03591C172.012 1.06026 170.865 1.10897 169.752 1.15604C169.401 1.16693 169.025 1.16843 168.63 1.16051L163.058 1.06834C161.719 1.04007 160.383 1.00627 159.069 0.992942C157.994 0.96401 156.994 0.973072 156.104 1.0198C155.154 1.06892 154.119 1.08887 153.017 1.07925C151.306 1.10613 149.605 1.11641 147.743 1.1128C146.555 1.11502 145.339 1.10783 144.098 1.08569C143.47 1.05719 142.937 1.0804 142.601 1.15085C142.397 1.20884 141.917 1.16159 141.518 1.14813C139.391 1.01841 137.396 0.987671 135.673 1.05806C135.453 1.06953 135.212 1.07368 134.954 1.07045C133.294 1.06803 131.575 1.05231 129.982 1.05213C129.562 1.0576 129.167 1.07261 128.802 1.09696C128.841 1.1367 128.953 1.17976 129.114 1.21722C129.274 1.25469 129.472 1.28368 129.665 1.29818C131.172 1.40918 132.627 1.46782 133.969 1.47164C136.203 1.4575 138.542 1.48929 140.963 1.56667C142.842 1.64469 144.555 1.62826 145.975 1.51862C147.085 1.43681 148.529 1.46759 150.059 1.60568C150.714 1.67163 151.349 1.698 151.879 1.68119C152.388 1.65914 152.973 1.66449 153.598 1.69692C154.917 1.75859 156.185 1.7872 157.378 1.78218C158.544 1.75948 159.632 1.69746 160.83 1.67864C162.027 1.65983 163.851 1.67061 165.328 1.63864C166.805 1.60668 168.265 1.60237 169.709 1.62571ZM63.4984 -1.60936C63.6337 -1.43835 64.1127 -1.3319 64.6279 -1.2863C66.4041 -1.08383 68.1601 -0.997667 69.6011 -1.04228C70.3795 -1.10451 71.4173 -1.08056 72.5103 -0.975122C73.7832 -0.865521 74.9728 -0.847344 75.8697 -0.923797C76.0894 -0.937155 76.2577 -0.965396 76.3594 -1.006C76.3792 -1.03919 76.4155 -1.10002 76.4221 -1.11109C76.3279 -1.13914 76.2123 -1.16513 76.0843 -1.18706C75.9563 -1.20899 75.8194 -1.22626 75.684 -1.23756L69.8005 -1.43331L68.7752 -1.47639C66.9026 -1.58925 65.1181 -1.63421 63.4984 -1.60936V-1.60936ZM75.0712 1.09734C75.9895 1.37659 75.9927 1.37104 76.4631 1.43488C78.7326 1.70003 81.0005 1.84317 82.9971 1.84725C83.4408 1.84644 83.8175 1.81949 84.095 1.76865C84.2378 1.76176 84.3286 1.73987 84.3478 1.70775C84.367 1.67563 84.3128 1.63589 84.1972 1.59719L83.467 1.40047C82.1409 1.3153 80.8339 1.24763 79.5538 1.19786C78.0634 1.13909 76.7426 1.13682 75.1975 1.11288L75.0712 1.09734ZM150.539 42.9784C151.394 43.3627 151.398 43.3572 152.83 43.4563C153.828 43.5266 154.796 43.5678 155.706 43.5788C156.818 43.5909 157.957 43.6125 159.066 43.6301C159.336 43.6424 159.566 43.6322 159.709 43.6016C159.853 43.571 159.9 43.5222 159.842 43.4645C159.697 43.402 159.469 43.3415 159.197 43.2928C158.924 43.2442 158.623 43.2103 158.341 43.1966L157.736 43.1875C157.002 43.1684 156.239 43.1398 155.53 43.1356C155.07 43.1515 154.536 43.1392 153.972 43.0996C153.407 43.06 152.827 42.9942 152.276 42.9073L150.539 42.9784ZM79.6401 -1.10685C79.8685 -1.04029 80.1269 -0.97654 80.4084 -0.9173C81.4981 -0.7531 82.6515 -0.659842 83.6424 -0.655806C84.1109 -0.645635 84.5394 -0.681951 85.0164 -0.629177C85.872 -0.558656 86.7011 -0.52109 87.4591 -0.518515C87.4591 -0.518515 87.6716 -0.533914 87.7413 -0.537201L87.8865 -0.780554C87.5277 -0.83693 87.1535 -0.882986 86.7811 -0.916602C85.5315 -0.981346 84.3037 -1.02561 83.0791 -1.07541C81.8545 -1.1252 81.4275 -1.14808 80.6266 -1.16946C80.2694 -1.15771 79.9389 -1.13673 79.6401 -1.10685ZM52.58 29.1467L54.2153 29.6448C54.7444 29.6881 55.2388 29.696 55.6231 29.6672C56.0074 29.6384 56.2606 29.5745 56.3443 29.4854C56.4789 29.4436 56.4924 29.3818 56.3819 29.3129C56.2713 29.2439 56.0453 29.1732 55.7513 29.1155C55.4683 29.0472 55.1452 28.9859 54.8021 28.9355C54.4589 28.8851 54.103 28.8467 53.7565 28.8225L52.58 29.1467ZM66.1951 26.6667C65.1255 26.5823 64.1026 26.5478 63.2043 26.5658C62.6384 26.6152 61.8716 26.5994 61.0611 26.5217C59.5872 26.3667 58.1664 26.3238 57.0984 26.402C57.0984 26.402 57.0588 26.4684 56.8778 26.4877C56.6968 26.507 57.4147 26.5538 57.5726 26.5732C58.7307 26.6207 59.8954 26.6572 60.9022 26.6743C61.5273 26.6735 62.1885 26.6892 62.8744 26.7211C63.8181 26.7702 64.7131 26.7862 65.5244 26.7682C65.5244 26.7682 65.8383 26.7534 66.1918 26.6723L66.1951 26.6667ZM180.417 0.723306C179.906 0.6295 179.352 0.553259 178.797 0.500309C178.241 0.447359 177.699 0.419074 177.209 0.417568C176.835 0.412674 176.532 0.437441 176.348 0.487955C176.165 0.538469 176.111 0.611847 176.196 0.696485C176.575 0.743129 177.08 0.80532 177.364 0.840303C178.349 0.83688 179.19 0.7919 180.417 0.723306ZM276.046 8.62832C275.636 8.5528 275.184 8.49506 274.743 8.4617C274.301 8.42834 273.887 8.42069 273.548 8.43964C273.374 8.44785 273.492 8.53366 273.462 8.58344C273.443 8.59472 273.443 8.60876 273.463 8.62407C273.483 8.63939 273.521 8.65543 273.575 8.6705C273.628 8.68557 273.694 8.69912 273.766 8.70974C273.839 8.72035 273.914 8.72764 273.984 8.73083C274.429 8.76336 274.849 8.77304 275.206 8.75901C275.564 8.74499 275.848 8.70769 276.033 8.65044L276.046 8.62832ZM282.453 9.70781C282.39 9.66325 282.255 9.61682 282.073 9.577C281.891 9.53719 281.675 9.50667 281.464 9.49106C281.09 9.48896 280.751 9.50131 280.459 9.52766C280.141 9.54799 280.37 9.677 280.799 9.75354C280.98 9.78426 281.174 9.80823 281.365 9.82353C281.557 9.83883 281.739 9.84504 281.899 9.84168C282.059 9.83831 282.192 9.82546 282.287 9.80414C282.382 9.78282 282.437 9.75363 282.446 9.71888L282.453 9.70781ZM96.2733 -0.632888C95.3174 -0.7921 94.5816 -0.752047 93.7723 -0.816037C92.963 -0.880028 92.7636 -0.88676 92.872 -0.784364C92.9804 -0.681967 93.5352 -0.702734 93.8826 -0.659977C94.352 -0.603241 94.8242 -0.570663 95.2464 -0.565879C95.6686 -0.561094 96.0242 -0.584295 96.2733 -0.632888V-0.632888ZM295.47 26.3061C294.964 26.2704 294.468 26.2452 293.99 26.2308C293.927 26.2456 293.887 26.265 293.874 26.2878C293.86 26.3106 293.873 26.3363 293.911 26.3635C293.911 26.3635 294.235 26.445 294.424 26.4683C295.122 26.5483 295.157 26.4338 295.47 26.3061V26.3061ZM367.034 41.1398C367.376 41.2473 367.536 41.3204 367.81 41.372C367.936 41.3899 368.067 41.4029 368.192 41.4101C368.316 41.4172 368.433 41.4183 368.532 41.4133C368.652 41.3823 368.68 41.3349 368.611 41.2805C368.611 41.2805 368.262 41.1841 368.129 41.1796C367.749 41.1569 367.382 41.1435 367.034 41.1398V41.1398ZM80.002 -1.54318C79.2756 -1.63258 78.5808 -1.7181 78.0779 -1.61377C79.2313 -1.50149 79.2313 -1.50148 80.002 -1.54318ZM91.7667 -0.522639C91.0333 -0.713837 90.6029 -0.731188 90.2508 -0.70922C90.1759 -0.703686 90.1264 -0.691354 90.1097 -0.674095C90.093 -0.656835 90.11 -0.635587 90.1581 -0.613561C90.2063 -0.591535 90.283 -0.569934 90.3766 -0.552022C90.4702 -0.53411 90.5756 -0.520862 90.6769 -0.514287C91.0594 -0.508783 91.4242 -0.511578 91.7667 -0.522639V-0.522639ZM129.517 -0.441789C129.533 -0.469443 129.553 -0.502627 129.363 -0.525949C129.314 -0.537788 129.256 -0.547969 129.195 -0.555475C129.134 -0.56298 129.072 -0.56754 129.016 -0.5687C129.016 -0.5687 128.996 -0.535514 128.983 -0.513391L129.517 -0.441789ZM155.731 45.4698L155.309 45.495L155.499 45.5183L155.999 45.5324L155.731 45.4698ZM304.271 9.2763C304.113 9.25687 303.955 9.23743 303.932 9.27615C303.898 9.28214 303.878 9.2908 303.871 9.30138C303.865 9.31197 303.873 9.32417 303.895 9.33699C303.895 9.33699 304.116 9.3642 304.211 9.37586L304.271 9.2763ZM279.678 9.58595C279.574 9.58373 279.481 9.58632 279.402 9.59357C279.402 9.59357 279.383 9.62675 279.383 9.62675L279.698 9.66563L279.678 9.58595ZM65.361 17.4928C65.239 17.4726 65.1097 17.4567 64.982 17.4461L64.8241 17.4267C64.8241 17.4267 64.9938 17.4832 65.0885 17.4948C65.1833 17.5065 65.2597 17.4922 65.361 17.4928Z" fill="#DF6951"/>
</g>
</svg>
