<svg width="54" height="16" viewBox="0 0 54 16" fill="none" xmlns="http://www.w3.org/2000/svg">
<path d="M6.02399 2.88009H3.21599V4.00009H4.71199C4.51199 4.53609 4.02399 4.86409 3.27999 4.86409C2.19199 4.86409 1.51999 4.16809 1.51999 3.21609C1.51999 2.23209 2.22399 1.53609 3.16799 1.53609C3.79999 1.53609 4.30399 1.82409 4.53599 2.19209L5.62399 1.56809C5.15199 0.816086 4.24799 0.288086 3.17599 0.288086C1.52799 0.288086 0.23999 1.58409 0.23999 3.20809C0.23999 4.81609 1.50399 6.11209 3.26399 6.11209C4.83199 6.11209 6.02399 5.07209 6.02399 3.36009V2.88009Z" fill="white"/>
<path d="M7.62562 4.76809V3.77609H9.62562V2.56009H7.62562V1.63209H9.82561V0.400086H6.34562V6.00009H9.86561V4.76809H7.62562Z" fill="white"/>
<path d="M13.9478 0.400086H9.7878V1.63209H11.2278V6.00009H12.5078V1.63209H13.9478V0.400086Z" fill="white"/>
<path d="M15.7081 0.400086V6.00009H16.9881V0.400086H15.7081Z" fill="white"/>
<path d="M21.3103 0.400086H17.1503V1.63209H18.5903V6.00009H19.8703V1.63209H21.3103V0.400086Z" fill="white"/>
<path d="M25.7426 6.11209C27.3506 6.11209 28.6546 4.84809 28.6546 3.20009C28.6546 1.55209 27.3506 0.288086 25.7426 0.288086C24.1346 0.288086 22.8306 1.55209 22.8306 3.20009C22.8306 4.84809 24.1346 6.11209 25.7426 6.11209ZM25.7426 4.86409C24.8306 4.86409 24.1106 4.20009 24.1106 3.20009C24.1106 2.20009 24.8306 1.53609 25.7426 1.53609C26.6546 1.53609 27.3746 2.20009 27.3746 3.20009C27.3746 4.20009 26.6546 4.86409 25.7426 4.86409Z" fill="white"/>
<path d="M32.0953 0.400086V3.44009L29.9353 0.400086H28.9753V6.00009H30.2553V2.96009L32.4153 6.00009H33.3753V0.400086H32.0953Z" fill="white"/>
<path d="M6.02399 12.3921V12.6081C6.02399 13.3068 5.77599 13.8961 5.27999 14.3761C4.78399 14.8508 4.13066 15.0881 3.31999 15.0881C2.46666 15.0881 1.76266 14.8108 1.20799 14.2561C0.653324 13.6961 0.37599 13.0108 0.37599 12.2001C0.37599 11.3894 0.650657 10.7068 1.19999 10.1521C1.74932 9.59209 2.44532 9.31209 3.28799 9.31209C3.79999 9.31209 4.26932 9.43475 4.69599 9.68009C5.12799 9.92542 5.46132 10.2534 5.69599 10.6641L5.31999 10.8881C5.13332 10.5361 4.85599 10.2534 4.48799 10.0401C4.12532 9.82675 3.72532 9.72009 3.28799 9.72009C2.56266 9.72009 1.96532 9.96009 1.49599 10.4401C1.03199 10.9148 0.79999 11.5014 0.79999 12.2001C0.79999 12.8988 1.03466 13.4881 1.50399 13.9681C1.97332 14.4428 2.57866 14.6801 3.31999 14.6801C3.97599 14.6801 4.50666 14.5014 4.91199 14.1441C5.31732 13.7868 5.54399 13.3361 5.59199 12.7921H3.21599V12.3921H6.02399Z" fill="white"/>
<path d="M11.7026 14.2481C11.1426 14.8081 10.4599 15.0881 9.65462 15.0881C8.84928 15.0881 8.16662 14.8081 7.60662 14.2481C7.04662 13.6828 6.76662 13.0001 6.76662 12.2001C6.76662 11.4001 7.04662 10.7201 7.60662 10.1601C8.16662 9.59475 8.84928 9.31209 9.65462 9.31209C10.4599 9.31209 11.1426 9.59475 11.7026 10.1601C12.2626 10.7201 12.5426 11.4001 12.5426 12.2001C12.5426 13.0001 12.2626 13.6828 11.7026 14.2481ZM7.90262 13.9601C8.38262 14.4401 8.96662 14.6801 9.65462 14.6801C10.3426 14.6801 10.9239 14.4401 11.3986 13.9601C11.8786 13.4748 12.1186 12.8881 12.1186 12.2001C12.1186 11.5121 11.8786 10.9281 11.3986 10.4481C10.9239 9.96275 10.3426 9.72009 9.65462 9.72009C8.96662 9.72009 8.38262 9.96275 7.90262 10.4481C7.42795 10.9281 7.19062 11.5121 7.19062 12.2001C7.19062 12.8881 7.42795 13.4748 7.90262 13.9601Z" fill="white"/>
<path d="M18.2339 14.2481C17.6739 14.8081 16.9912 15.0881 16.1859 15.0881C15.3805 15.0881 14.6979 14.8081 14.1379 14.2481C13.5779 13.6828 13.2979 13.0001 13.2979 12.2001C13.2979 11.4001 13.5779 10.7201 14.1379 10.1601C14.6979 9.59475 15.3805 9.31209 16.1859 9.31209C16.9912 9.31209 17.6739 9.59475 18.2339 10.1601C18.7939 10.7201 19.0739 11.4001 19.0739 12.2001C19.0739 13.0001 18.7939 13.6828 18.2339 14.2481ZM14.4339 13.9601C14.9139 14.4401 15.4979 14.6801 16.1859 14.6801C16.8739 14.6801 17.4552 14.4401 17.9299 13.9601C18.4099 13.4748 18.6499 12.8881 18.6499 12.2001C18.6499 11.5121 18.4099 10.9281 17.9299 10.4481C17.4552 9.96275 16.8739 9.72009 16.1859 9.72009C15.4979 9.72009 14.9139 9.96275 14.4339 10.4481C13.9592 10.9281 13.7219 11.5121 13.7219 12.2001C13.7219 12.8881 13.9592 13.4748 14.4339 13.9601Z" fill="white"/>
<path d="M25.4771 12.3921V12.6081C25.4771 13.3068 25.2291 13.8961 24.7331 14.3761C24.2371 14.8508 23.5838 15.0881 22.7731 15.0881C21.9198 15.0881 21.2158 14.8108 20.6611 14.2561C20.1064 13.6961 19.8291 13.0108 19.8291 12.2001C19.8291 11.3894 20.1038 10.7068 20.6531 10.1521C21.2024 9.59209 21.8984 9.31209 22.7411 9.31209C23.2531 9.31209 23.7224 9.43475 24.1491 9.68009C24.5811 9.92542 24.9144 10.2534 25.1491 10.6641L24.7731 10.8881C24.5864 10.5361 24.3091 10.2534 23.9411 10.0401C23.5784 9.82675 23.1784 9.72009 22.7411 9.72009C22.0158 9.72009 21.4184 9.96009 20.9491 10.4401C20.4851 10.9148 20.2531 11.5014 20.2531 12.2001C20.2531 12.8988 20.4878 13.4881 20.9571 13.9681C21.4264 14.4428 22.0318 14.6801 22.7731 14.6801C23.4291 14.6801 23.9598 14.5014 24.3651 14.1441C24.7705 13.7868 24.9971 13.3361 25.0451 12.7921H22.6691V12.3921H25.4771Z" fill="white"/>
<path d="M26.9637 14.6001H29.6037V15.0001H26.5397V9.40009H26.9637V14.6001Z" fill="white"/>
<path d="M30.9091 14.6001H33.7091V15.0001H30.4851V9.40009H33.6691V9.80009H30.9091V11.9761H33.4691V12.3761H30.9091V14.6001Z" fill="white"/>
<path d="M38.7875 9.40009C39.2888 9.40009 39.7048 9.56542 40.0355 9.89609C40.3662 10.2268 40.5315 10.6401 40.5315 11.1361C40.5315 11.6321 40.3662 12.0454 40.0355 12.3761C39.7048 12.7014 39.2888 12.8641 38.7875 12.8641H37.3075V15.0001H36.8835V9.40009H38.7875ZM38.7875 12.4641C39.1715 12.4641 39.4862 12.3388 39.7315 12.0881C39.9822 11.8374 40.1075 11.5201 40.1075 11.1361C40.1075 10.7468 39.9822 10.4268 39.7315 10.1761C39.4862 9.92542 39.1715 9.80009 38.7875 9.80009H37.3075V12.4641H38.7875Z" fill="white"/>
<path d="M42.0028 14.6001H44.6428V15.0001H41.5788V9.40009H42.0028V14.6001Z" fill="white"/>
<path d="M49.4484 15.0001L48.9044 13.5761H46.0964L45.5524 15.0001H45.1044L47.2804 9.40009H47.7284L49.8964 15.0001H49.4484ZM46.2564 13.1761H48.7524L47.5044 9.92009L46.2564 13.1761Z" fill="white"/>
<path d="M53.8809 9.40009L51.8409 12.6961V15.0001H51.4169V12.6961L49.3769 9.40009H49.8569L51.6329 12.2881L53.4009 9.40009H53.8809Z" fill="white"/>
</svg>
